<svg xmlns="http://www.w3.org/2000/svg" width="24.969" height="25" viewBox="0 0 24.969 25">
  <defs>
    <style>
      .cls-1 {
        fill: red;
        
      }
    </style>
  </defs>
  <path id="about.svg" class="cls-1" d="M885.522,149.193a0.4,0.4,0,0,0-.038-0.024l-0.038-.02a7.288,7.288,0,0,0-7.231,0l-0.036.02-0.038.023a7.311,7.311,0,0,0,0,12.616l0.038,0.023c0.012,0.007.024,0.014,0.037,0.02a7.286,7.286,0,0,0,7.23,0l0.038-.02c0.013-.007.025-0.016,0.038-0.024A7.31,7.31,0,0,0,885.522,149.193Zm-3.691.244a6.026,6.026,0,0,1,2.473.528l-1.636,2.837a2.79,2.79,0,0,0-.837-0.127,2.827,2.827,0,0,0-.837.126l-1.636-2.836A6.026,6.026,0,0,1,881.831,149.437Zm1.576,6.063a1.577,1.577,0,1,1-1.576-1.578A1.578,1.578,0,0,1,883.407,155.5Zm-5.128-4.909,1.636,2.835a2.837,2.837,0,0,0-.838,1.45H875.8A6.067,6.067,0,0,1,878.279,150.591Zm-2.475,5.533h3.273a2.83,2.83,0,0,0,.838,1.449l-1.636,2.836A6.069,6.069,0,0,1,875.8,156.124Zm6.027,5.439a6.026,6.026,0,0,1-2.473-.528l1.636-2.837a2.822,2.822,0,0,0,1.674,0l1.636,2.837A6.026,6.026,0,0,1,881.831,161.563Zm3.552-1.154-1.636-2.836a2.834,2.834,0,0,0,.838-1.449h3.273A6.071,6.071,0,0,1,885.383,160.409Zm-0.8-5.533a2.83,2.83,0,0,0-.838-1.449l1.636-2.836a6.067,6.067,0,0,1,2.475,4.285h-3.273Zm6.595-.72a0.644,0.644,0,0,1-.13.013,0.623,0.623,0,0,1-.609-0.5,8.793,8.793,0,0,0-6.786-6.791,0.623,0.623,0,1,1,.258-1.22,10.041,10.041,0,0,1,7.748,7.754A0.624,0.624,0,0,1,891.18,154.156Zm-10.692,10.7a0.624,0.624,0,0,1-.609.5,0.646,0.646,0,0,1-.13-0.014A10.043,10.043,0,0,1,872,157.583a0.623,0.623,0,1,1,1.22-.257,8.794,8.794,0,0,0,6.785,6.79A0.625,0.625,0,0,1,880.488,164.856Zm1.342-9.98h0a0.624,0.624,0,1,1-.624.624,0.623,0.623,0,0,1,.624-0.624Zm0-11.876a12.5,12.5,0,1,0,12.491,12.5A12.51,12.51,0,0,0,881.831,143Zm0,23.752A11.253,11.253,0,1,1,893.075,155.5,11.26,11.26,0,0,1,881.831,166.752Z" transform="translate(-869.344 -143)"/>
</svg>
