<svg xmlns="http://www.w3.org/2000/svg" width="24.969" height="24" viewBox="0 0 24.969 24">
  <defs>
    <style>
      .cls-1 {
        fill: red;
 
      }
    </style>
  </defs>
  <path id="blog.svg" class="cls-1" d="M871.758,511.063h13.689v0.775H871.758v-0.775Zm0,3.486h12.883v0.775H871.758v-0.775Zm0,3.482H881.82v0.775H871.758v-0.775Zm3.218,3.487h0.806v0.775h-0.806v-0.775Zm-1.612,0h0.806v0.775h-0.806v-0.775Zm-1.606,0h0.8v0.775h-0.8v-0.775Zm0-18.581v6.194h5.635v-6.194h-5.635Zm4.83,5.419h-4.025v-4.644h4.025v4.644Zm17.359,3.368-1.14-1.1a1.246,1.246,0,0,0-1.71,0l-3.243,3.118v-7.1L881.987,501H869.34v24h18.519v-5.778l6.088-5.854A1.131,1.131,0,0,0,893.947,511.724Zm-11.724-9.4,4.26,4.1h-4.26v-4.1Zm4.83,21.9H870.146v-22.45h11.272v5.419h5.635v7.327l-5.719,5.5-0.712,3.421,3.557-.685,2.874-2.764v4.233Zm-5.1-3.231,1.214,1.167-1.519.292Zm2.029,0.859-1.71-1.644,7.4-7.115,1.71,1.644Zm7.975-7.663-1.71-1.644,0.57-.548,1.71,1.644Zm1.42-1.37-0.285.274-1.71-1.644,0.285-.274a0.415,0.415,0,0,1,.57,0l1.14,1.1A0.378,0.378,0,0,1,893.377,512.82Zm-9.679,7.118,5.694-5.476,0.57,0.548-5.694,5.476Z" transform="translate(-869.344 -501)"/>
</svg>
