<svg xmlns="http://www.w3.org/2000/svg" width="24.969" height="16" viewBox="0 0 24.969 16">
  <defs>
    <style>
      .cls-1 {
        fill: red;
       
      }
    </style>
  </defs>
  <path id="business.svg" class="cls-1" d="M894.1,446.712a0.531,0.531,0,0,0-.476-0.06l-4.242,1.482a2.039,2.039,0,0,0-1.18,1.043,1.924,1.924,0,0,0-.1.281,19.7,19.7,0,0,1-3.428-1.281,4.353,4.353,0,0,0-4.919.467c-0.676.013-1.606,0.09-2.521,0.167-0.583.05-1.134,0.1-1.582,0.121a1.938,1.938,0,0,0-.189-0.756,2.041,2.041,0,0,0-1.179-1.042l-4.243-1.482a0.534,0.534,0,0,0-.477.06,0.493,0.493,0,0,0-.222.409v10a0.511,0.511,0,0,0,.521.5h1.52a2.127,2.127,0,0,0,1.637-.766l0.709,0.514c0.608,0.439,1.273.918,1.564,1.153,1.938,1.559,4.268,3.242,4.732,3.535a3.934,3.934,0,0,0,1.808.565,1.969,1.969,0,0,0,1.228-.334,1.732,1.732,0,0,0,1.3-.028,1.913,1.913,0,0,0,.965-0.928,2.1,2.1,0,0,0,1.3-.182,1.742,1.742,0,0,0,.846-0.818,1.683,1.683,0,0,0,1.137-.349,1.6,1.6,0,0,0,.682-1.483l1.32-.7a2.112,2.112,0,0,0,1.671.823h1.52a0.511,0.511,0,0,0,.521-0.5v-10A0.493,0.493,0,0,0,894.1,446.712Zm-21.743,8.262a1.047,1.047,0,0,1-.975.649h-1v-8.788l3.545,1.239a1.018,1.018,0,0,1,.589.521,0.956,0.956,0,0,1,.03.77Zm15.62,3.217a0.478,0.478,0,0,1-.533.1c-0.006,0-.014,0-0.02-0.01a0.358,0.358,0,0,0-.026-0.029c-0.372-.282-2.039-1.921-3.069-2.953a0.533,0.533,0,0,0-.735-0.016,0.486,0.486,0,0,0-.016.707c0.242,0.242,2.183,2.185,2.96,2.865a0.7,0.7,0,0,1-.378.407,0.832,0.832,0,0,1-.811.017,0.091,0.091,0,0,1-.014-0.007c-0.006,0-.009-0.013-0.015-0.018-0.625-.479-2.19-2.078-2.545-2.448a0.536,0.536,0,0,0-.735-0.03,0.486,0.486,0,0,0-.031.707c0.017,0.018,1.551,1.608,2.413,2.347a0.89,0.89,0,0,1-.478.522,0.7,0.7,0,0,1-.711-0.1c-0.748-.609-2.248-2.143-2.543-2.447a0.534,0.534,0,0,0-.735-0.023,0.486,0.486,0,0,0-.025.706c0.35,0.36,1.384,1.412,2.169,2.125a2.175,2.175,0,0,1-.267.017,2.938,2.938,0,0,1-1.236-.4c-0.365-.23-2.656-1.873-4.635-3.465-0.3-.242-0.982-0.735-1.607-1.187-0.335-.241-0.644-0.464-0.872-0.632l1.949-4.994c0.506-.021,1.18-0.077,1.894-0.138,0.4-.034.808-0.067,1.194-0.1a3.716,3.716,0,0,0-1.36,2.617,1.439,1.439,0,0,0,.738,1.078,2.847,2.847,0,0,0,3.182-.814,3.712,3.712,0,0,0,1.181-.36c0.61,0.551,1.428,1.2,2.287,1.879a20.565,20.565,0,0,1,3.639,3.278A0.591,0.591,0,0,1,887.976,458.191Zm0.893-1.609a25.385,25.385,0,0,0-3.661-3.243c-0.977-.773-1.9-1.5-2.489-2.07a0.537,0.537,0,0,0-.613-0.088,3.1,3.1,0,0,1-1.368.444,0.52,0.52,0,0,0-.388.231,1.9,1.9,0,0,1-1.9.7,0.446,0.446,0,0,1-.256-0.344,3,3,0,0,1,1.142-1.876c1.841-1.769,3.158-2.116,4.861-1.272a20.675,20.675,0,0,0,3.885,1.426,2.186,2.186,0,0,0,.062.224l2.021,5.178Zm4.412,0.041h-1a1.046,1.046,0,0,1-.975-0.649l-2.189-5.609a0.956,0.956,0,0,1,.03-0.77,1.015,1.015,0,0,1,.589-0.521l3.545-1.239v8.788h0Z" transform="translate(-869.344 -445.625)"/>
</svg>
