<svg id="comp.svg" xmlns="http://www.w3.org/2000/svg" width="81.625" height="54.88" viewBox="0 0 81.625 54.88">
  <defs>
    <style>
      .cls-1 {
        fill: #ff1812;
      }

      .cls-1, .cls-2 {
        fill-rule: evenodd;
      }

      .cls-2 {
        fill: #2d303a;
      }
    </style>
  </defs>
  <path id="Фигура_4" data-name="Фигура 4" class="cls-1" d="M73.416,1150.97a1.768,1.768,0,0,0-2.484,0l-11.047,11.09a1.764,1.764,0,0,0,0,2.49,1.743,1.743,0,0,0,2.484,0l11.047-11.08A1.776,1.776,0,0,0,73.416,1150.97Zm6.548,6.43a1.749,1.749,0,0,0-2.484,0l-4.4,4.42a1.759,1.759,0,0,0,2.484,2.49l4.4-4.42A1.763,1.763,0,0,0,79.964,1157.4Z" transform="translate(-30 -1133.06)"/>
  <path id="Фигура_6" data-name="Фигура 6" class="cls-2" d="M97.41,1140.73h-53.2a1.76,1.76,0,0,0-1.757,1.76v26.63a1.757,1.757,0,1,0,3.513,0v-24.87H95.654v24.87h0a1.757,1.757,0,1,0,3.513,0v-26.63A1.76,1.76,0,0,0,97.41,1140.73Zm12.632,34.68h-3.236v-37.02a5.325,5.325,0,0,0-5.31-5.33H40.129a5.325,5.325,0,0,0-5.31,5.33v37.02H31.583A1.584,1.584,0,0,0,30,1177v3.11a7.822,7.822,0,0,0,7.8,7.83h66.021a7.821,7.821,0,0,0,7.8-7.83V1177A1.584,1.584,0,0,0,110.042,1175.41Zm-71.71-37.02a1.8,1.8,0,0,1,1.8-1.8H101.5a1.8,1.8,0,0,1,1.8,1.8v37.02H79.508a2,2,0,0,0-.342.03,1.585,1.585,0,0,0-1.282,1.56,2.428,2.428,0,0,1-2.42,2.43h-9.3a2.427,2.427,0,0,1-2.42-2.43,1.59,1.59,0,0,0-1.617-1.59H38.332v-37.02Zm70.129,41.72h0a4.654,4.654,0,0,1-4.638,4.66H37.8a4.654,4.654,0,0,1-4.637-4.66v-1.53H60.807a5.6,5.6,0,0,0,5.353,4.02h9.3a5.6,5.6,0,0,0,5.353-4.02h27.643v1.53h0Z" transform="translate(-30 -1133.06)"/>
</svg>
