<svg id="electrics.svg" xmlns="http://www.w3.org/2000/svg" width="75.218" height="75.19" viewBox="0 0 75.218 75.19">
  <defs>
    <style>
      .cls-1 {
        fill: #ff4641;
      }

      .cls-1, .cls-2 {
        fill-rule: evenodd;
      }

      .cls-2 {
        fill: #2d303a;
      }
    </style>
  </defs>
  <path id="Фигура_6" data-name="Фигура 6" class="cls-1" d="M512.9,1160.76a13.341,13.341,0,1,0,13.2,13.34A13.292,13.292,0,0,0,512.9,1160.76Zm-9.806,17.9a10.912,10.912,0,0,1,9.806-15.47,10.638,10.638,0,0,1,4.507,1Zm1.284,2.13,15.138-15.3a10.939,10.939,0,0,1,1.9,1.93l-15.138,15.29A10.881,10.881,0,0,1,504.381,1180.79Zm19.325-6.69a10.875,10.875,0,0,1-10.8,10.92,10.647,10.647,0,0,1-4.508-1.01l14.314-14.46A10.957,10.957,0,0,1,523.706,1174.1Zm-12-16.98h2.4v2.43h-2.4v-2.43Zm0,31.54h2.4v2.42h-2.4v-2.42Zm15.605-15.77h2.4v2.43h-2.4v-2.43Zm-31.21,0h2.4v2.43h-2.4v-2.43Zm29.659-9.35-1.7,1.72-2.4-2.43,1.7-1.71Zm-23.306,23.55-2.4-2.43,1.7-1.71,2.4,2.42Zm20.905,0-1.7-1.72,2.4-2.42,1.7,1.71Zm-19.207-24.26-2.4,2.43-1.7-1.72,2.4-2.42Z" transform="translate(-488.813 -1126.81)"/>
  <path id="Фигура_7" data-name="Фигура 7" class="cls-2" d="M530.058,1135.29H496.1v16.98h33.961v-16.98h0Zm-2.425,14.55h-29.11v-12.12h29.11v12.12h0Zm-26.684-9.7h2.425v7.28h-2.425v-7.28Zm4.851,0h2.426v7.28H505.8v-7.28Zm16.981,0h2.426v2.43h-2.426v-2.43Zm-12.129,0h2.426v2.43h-2.426v-2.43Zm12.129,4.85h2.426v2.43h-2.426v-2.43Zm41.239-1.21h-1.213v-8.49h-2.426v-8.49h-2.426v8.49h-2.426v8.49h-1.213v2.43h1.213v9.7a3.624,3.624,0,0,0,2.426,3.41v23.27a14.573,14.573,0,0,1-14.555,14.56h-6.065v-7.28h2.427a8.5,8.5,0,0,0,8.49-8.49v-22.06a3.624,3.624,0,0,0,2.426-3.41v-9.7h1.213v-2.43h-1.213v-8.49h-2.426v-8.49h-2.426v8.49H543.4v8.49h-1.213v2.43H543.4v9.7a3.624,3.624,0,0,0,2.426,3.41v22.06a6.07,6.07,0,0,1-6.065,6.06h-2.426v-57a3.641,3.641,0,0,0-3.638-3.64H492.458a3.641,3.641,0,0,0-3.638,3.64v67.92a3.641,3.641,0,0,0,3.638,3.64H533.7a3.637,3.637,0,0,0,3.416-2.43H543.4a17,17,0,0,0,16.981-16.98v-23.27a3.624,3.624,0,0,0,2.426-3.41v-9.7h1.213v-2.43h0Zm-18.194-6.06h2.426v6.06h-2.426v-6.06Zm0,8.49h2.426v9.7a1.213,1.213,0,0,1-2.426,0v-9.7h0Zm-10.916,52.15a1.21,1.21,0,0,1-1.213,1.21H492.458a1.211,1.211,0,0,1-1.213-1.21v-67.92a1.211,1.211,0,0,1,1.213-1.21H533.7a1.21,1.21,0,0,1,1.213,1.21v67.92Zm25.471-42.45a1.213,1.213,0,0,1-2.426,0v-9.7h2.426v9.7Zm0-12.13h-2.426v-6.06h2.426v6.06Zm-66.71,49.73h4.852v2.42h-4.852v-2.42Zm33.962,0h4.851v2.42h-4.851v-2.42Z" transform="translate(-488.813 -1126.81)"/>
</svg>
