<svg id="express.svg" xmlns="http://www.w3.org/2000/svg" width="70.377" height="70.41" viewBox="0 0 70.377 70.41">
  <defs>
    <style>
      .cls-1 {
        fill: #ff1812;
      }

      .cls-1, .cls-2 {
        fill-rule: evenodd;
      }

      .cls-2 {
        fill: #2d303a;
      }
    </style>
  </defs>
  <path id="Фигура_6" data-name="Фигура 6" class="cls-1" d="M959.061,1145.17a6.81,6.81,0,1,0-6.813-6.81A6.816,6.816,0,0,0,959.061,1145.17Zm0-11.35a4.54,4.54,0,1,1-4.542,4.54A4.548,4.548,0,0,1,959.061,1133.82Zm-5.678,13.62h9.084v2.28h-9.084v-2.28Zm11.355,0h2.271v2.28h-2.271v-2.28Z" transform="translate(-944.313 -1123.59)"/>
  <path id="Фигура_8" data-name="Фигура 8" class="cls-2" d="M1010.35,1148.58a4.311,4.311,0,0,0-3.07,1.27l-6.21,6.21v-14.4a10.6,10.6,0,0,1,1.14,4.65h2.27c0-4.04,4.07-10.22,9.08-10.22v-2.27c-5.51,0-9.08-3.57-9.08-9.08h-2.27a9.086,9.086,0,0,1-1.14,4.45v-2.18a3.409,3.409,0,0,0-3.4-3.41H947.706a3.412,3.412,0,0,0-3.406,3.41v63.58a3.412,3.412,0,0,0,3.406,3.41h49.962a3.409,3.409,0,0,0,3.4-3.41v-22.24l12.36-12.35A4.349,4.349,0,0,0,1010.35,1148.58Zm-7.09-18.65a10.09,10.09,0,0,0,5.5,5.28,14.239,14.239,0,0,0-5.3,6.1,12.756,12.756,0,0,0-5.55-6.24A11.041,11.041,0,0,0,1003.26,1129.93Zm-4.457,60.66h0a1.138,1.138,0,0,1-1.135,1.14H947.706a1.138,1.138,0,0,1-1.135-1.14v-63.58a1.138,1.138,0,0,1,1.135-1.14h49.962a1.138,1.138,0,0,1,1.135,1.14v4.86a9.105,9.105,0,0,1-5.677,1.95v2.27a8.2,8.2,0,0,1,5.677,2.44v19.8l-15.9,15.9v-6.35h-7.948v7.95H981.3l-0.333.33-0.154.16-4.612,10.76,10.759-4.61,11.842-11.85v19.97h0Zm-14.479-9.46-3.8,1.62,1.628-3.79Zm-3.689-10.98v3.41h-3.406v-3.41h3.406Zm5.678,9.75-2.937-2.93L1003.35,1157l2.93,2.93Zm25.507-25.51-3.93,3.94-2.94-2.94,3.93-3.93a2.1,2.1,0,0,1,1.47-.61A2.072,2.072,0,0,1,1011.82,1154.39Zm-49.353,2.14h-7.948v7.95h7.948v-7.95h0Zm-2.271,5.68H956.79v-3.41H960.2v3.41Zm-5.677,13.62h7.948v-7.95h-7.948v7.95Zm2.271-5.68H960.2v3.41H956.79v-3.41Zm26.116-13.62h-7.948v7.95h7.948v-7.95h0Zm-2.271,5.68h-3.406v-3.41h3.406v3.41Zm-6.813-27.26h15.9v2.28h-15.9v-2.28Zm0,6.82h20.439v2.27H973.822v-2.27Zm0,6.81h20.439v2.27H973.822v-2.27Zm-9.084,9.08h5.678v2.27h-5.678v-2.27Zm0,4.55h5.678v2.27h-5.678v-2.27Zm20.439-4.55h5.678v2.27h-5.678v-2.27Zm0,4.55h5.678v2.27h-5.678v-2.27Zm-20.439,9.08h5.678v2.27h-5.678v-2.27Zm-10.219,9.08h20.439v2.27H954.519v-2.27Zm0,4.55h20.439v2.27H954.519v-2.27Zm39.742,2.27h2.271v2.27h-2.271v-2.27Zm-4.542,0h2.271v2.27h-2.271v-2.27Zm-40.878,0h2.271v2.27h-2.271v-2.27Z" transform="translate(-944.313 -1123.59)"/>
</svg>
