<svg xmlns="http://www.w3.org/2000/svg" width="25" height="21.969" viewBox="0 0 25 21.969">
  <defs>
    <style>
      .cls-1 {
        fill-rule: evenodd;
        opacity: 0.5;
      }
    </style>
  </defs>
  <path id="garage.svg" class="cls-1" d="M894.148,570.236l-1.656-1.194-8.829-6.45a3.144,3.144,0,0,0-3.675,0l-8.829,6.45-1.656,1.194a0.39,0.39,0,0,0-.083.56,0.426,0.426,0,0,0,.583.079l1-.72v1.286a0.99,0.99,0,0,0-.245.175l-0.218.181a1.469,1.469,0,0,0-.757,1.022,1.518,1.518,0,0,0,.043.732,0.5,0.5,0,0,1-.087.425,2.239,2.239,0,0,0-.219,2.151,1.468,1.468,0,0,0,.17.282,0.52,0.52,0,0,1,.091.443,1.545,1.545,0,0,0-.043.249,3.143,3.143,0,0,0,.1.986,1.743,1.743,0,0,0,.5,1.023,1.1,1.1,0,0,0,.657.243v1.207H869.9a0.549,0.549,0,0,0-.41.181,0.5,0.5,0,0,0-.125.417l0.448,2.848h21.654a1.164,1.164,0,0,0,1.185-1.14v-12.71l1,0.72a0.426,0.426,0,0,0,.249.08,0.422,0.422,0,0,0,.334-0.16A0.39,0.39,0,0,0,894.148,570.236Zm-23.493,7.687a2.507,2.507,0,0,1-.089-0.749,0.809,0.809,0,0,1,.022-0.129,1.3,1.3,0,0,0-.23-1.112,0.73,0.73,0,0,1-.078-0.128,1.46,1.46,0,0,1,.148-1.38,1.26,1.26,0,0,0,.194-1.1,0.77,0.77,0,0,1-.021-0.359,0.656,0.656,0,0,1,.349-0.47l0.378-.3a0.379,0.379,0,0,1,.2-0.1,0.687,0.687,0,0,1,.105-0.012h0.02a1.045,1.045,0,0,1,.146.008,0.905,0.905,0,0,1,.688.423,0.633,0.633,0,0,1,.052.422,1.221,1.221,0,0,0-.02.2,1.173,1.173,0,0,0,.277.822,0.5,0.5,0,0,1,.1.211,0.892,0.892,0,0,1,0,.334,1.942,1.942,0,0,1-.127.418,2.245,2.245,0,0,1-.272.5,1.306,1.306,0,0,0-.107,1.326,1.061,1.061,0,0,1,.042.724,1.744,1.744,0,0,1-.916.959,1.588,1.588,0,0,1-.2.081,0.487,0.487,0,0,1-.428-0.009A1.19,1.19,0,0,1,870.655,577.923Zm1.654,5.283h-1.782l-0.291-1.845H872.6Zm2.856,0v-1.2H888.9v1.2H875.165ZM888.9,578v1.2H875.165V578H888.9Zm-13.738-.8V576H888.9v1.2H875.165Zm13.738-2H875.165V574H888.9v1.2Zm-13.738,4.8H888.9v1.2H875.165v-1.2Zm13.738-6.8H875.165V572H888.9v1.2Zm2.562,10h-1.729V571.2h-15.4v12.006h-1.181l0.323-2.051a0.5,0.5,0,0,0-.125-0.415,0.55,0.55,0,0,0-.409-0.18h-1.106v-1.384a0.732,0.732,0,0,0,.069-0.033,2.494,2.494,0,0,0,1.331-1.438,1.84,1.84,0,0,0-.075-1.274,0.617,0.617,0,0,1-.041-0.421,0.359,0.359,0,0,1,.057-0.118,3.009,3.009,0,0,0,.374-0.671,2.177,2.177,0,0,0,.189-1.03,1.606,1.606,0,0,0-.019-0.173,1.268,1.268,0,0,0-.277-0.563,0.417,0.417,0,0,1-.085-0.346,1.4,1.4,0,0,0-.128-0.957,1.73,1.73,0,0,0-1.309-.847l-0.069-.008,9.215-6.732a1.3,1.3,0,0,1,1.52,0l9.231,6.745v11.557A0.346,0.346,0,0,1,891.465,583.206Zm0.352-12.9-8.727-6.376a2.162,2.162,0,0,0-2.528,0l-8.728,6.376v-0.749l1.5-1.081a0.364,0.364,0,0,0,.046-0.05l7.113-5.2a2.282,2.282,0,0,1,2.668,0l5.4,3.946a0.391,0.391,0,0,0,.092.1l3.164,2.282V570.3Z" transform="translate(-869.313 -562.031)"/>
</svg>
