<svg id="grm.svg" xmlns="http://www.w3.org/2000/svg" width="81.939" height="81.938" viewBox="0 0 81.939 81.938">
  <defs>
    <style>
      .cls-1 {
        fill: #ff4641;
      }

      .cls-1, .cls-2 {
        fill-rule: evenodd;
      }

      .cls-2 {
        fill: #2d303a;
      }
    </style>
  </defs>
  <path id="Фигура_1" data-name="Фигура 1" class="cls-1" d="M943,924.56a5.44,5.44,0,1,0,5.439,5.44A5.445,5.445,0,0,0,943,924.56Zm0,7.68a2.24,2.24,0,1,1,2.24-2.24A2.242,2.242,0,0,1,943,932.24Z" transform="translate(-930.031 -917.031)"/>
  <path id="Фигура_5" data-name="Фигура 5" class="cls-2" d="M944.686,960.077l-0.047-.114a1.6,1.6,0,1,0-2.965,1.2l0.046,0.114A1.6,1.6,0,1,0,944.686,960.077Zm28.861-28.621-21.72-10.929a12.95,12.95,0,0,0-20.443,15.212,0.014,0.014,0,0,1,0,.007l7.812,19.3a1.6,1.6,0,1,0,2.966-1.2L937.2,941.586a12.953,12.953,0,0,0,18.064-15.747l16.843,8.475A1.6,1.6,0,0,0,973.547,931.456ZM943,939.76a9.76,9.76,0,1,1,9.758-9.76A9.771,9.771,0,0,1,943,939.76Zm65.213,9.14c-0.03-.014-0.05-0.03-0.08-0.044l-21.482-10.809a1.6,1.6,0,0,0-1.438,2.859l16.17,8.136a7.038,7.038,0,0,0,3.13,13.109l-12.773,17.432c0.032-.471.05-0.945,0.05-1.424a20.8,20.8,0,0,0-41.267-3.668l-3.463-8.556a1.6,1.6,0,1,0-2.966,1.2l7.691,19c0.009,0.022.021,0.04,0.031,0.062a20.781,20.781,0,0,0,35.374,4.991,0.017,0.017,0,0,1,.006.006l0.1-.138q0.5-.624.942-1.286l22.124-30.182a7.3,7.3,0,0,0,.45-0.619,1.187,1.187,0,0,0,.1-0.154A7.033,7.033,0,0,0,1008.21,948.9Zm-22.587,39.025-0.887,1.21A17.544,17.544,0,1,1,985.623,987.925Zm22.567-30.788-0.36.485A3.757,3.757,0,1,1,1008.19,957.137Zm-28.24-22.459-0.02-.01a1.6,1.6,0,1,0-1.435,2.859l0.02,0.011A1.6,1.6,0,1,0,979.95,934.678Zm-8.959,38.415a5.067,5.067,0,1,0,5.065,5.066A5.072,5.072,0,0,0,970.991,973.093Zm0,6.933a1.867,1.867,0,1,1,1.866-1.867A1.868,1.868,0,0,1,970.991,980.026Zm12.864-5.273-1.466-.365-0.638-1.542,0.788-1.312a1.6,1.6,0,0,0-.236-1.952l-2.671-2.688a1.6,1.6,0,0,0-1.959-.244l-1.322.8-1.542-.639-0.375-1.507a1.6,1.6,0,0,0-1.553-1.213H969.1a1.6,1.6,0,0,0-1.552,1.213l-0.376,1.507-1.541.639-1.323-.8a1.6,1.6,0,0,0-1.958.244l-2.671,2.688a1.6,1.6,0,0,0-.237,1.952l0.789,1.312-0.639,1.542-1.466.365a1.6,1.6,0,0,0-1.212,1.559l0.013,3.806a1.6,1.6,0,0,0,1.213,1.547l1.452,0.361,0.639,1.542-0.759,1.262a1.6,1.6,0,0,0,.244,1.959l2.711,2.7a1.6,1.6,0,0,0,1.952.237l1.252-.753,1.541,0.639,0.352,1.412a1.6,1.6,0,0,0,1.552,1.213h3.829a1.6,1.6,0,0,0,1.552-1.213l0.352-1.412,1.542-.639,1.251,0.753a1.6,1.6,0,0,0,1.952-.237l2.712-2.7a1.6,1.6,0,0,0,.243-1.959l-0.758-1.262,0.638-1.542,1.452-.361a1.6,1.6,0,0,0,1.213-1.547l0.014-3.806A1.6,1.6,0,0,0,983.855,974.753Zm-2,4.108-1.025.256a1.6,1.6,0,0,0-1.092.94l-1.256,3.032a1.6,1.6,0,0,0,.107,1.437l0.528,0.878-0.938.934-0.876-.527a1.6,1.6,0,0,0-1.436-.106l-3.032,1.256a1.6,1.6,0,0,0-.94,1.092l-0.244.981h-1.329l-0.244-.981a1.6,1.6,0,0,0-.94-1.092l-3.032-1.256a1.6,1.6,0,0,0-1.436.106l-0.875.527-0.939-.934,0.529-.878a1.6,1.6,0,0,0,.106-1.437l-1.256-3.032a1.6,1.6,0,0,0-1.091-.94l-1.026-.256,0-1.306,1.031-.257a1.6,1.6,0,0,0,1.091-.94l1.256-3.032a1.6,1.6,0,0,0-.106-1.437l-0.563-.935,0.909-.915,0.939,0.565a1.6,1.6,0,0,0,1.436.106l3.032-1.256a1.6,1.6,0,0,0,.94-1.092l0.268-1.076h1.281l0.268,1.076a1.6,1.6,0,0,0,.94,1.092l3.032,1.256a1.6,1.6,0,0,0,1.436-.106l0.939-.565,0.909,0.915-0.562.935a1.6,1.6,0,0,0-.107,1.437l1.256,3.032a1.6,1.6,0,0,0,1.092.94l1.03,0.257Z" transform="translate(-930.031 -917.031)"/>
</svg>
