<svg xmlns="http://www.w3.org/2000/svg" width="24.968" height="25" viewBox="0 0 24.968 25">
  <defs>
    <style>
      .cls-1 {
        fill: #2d303a;
        fill-rule: evenodd;
        opacity: 0.5;
      }
    </style>
  </defs>
  <path id="guarantee.svg" class="cls-1" d="M882.3,387.116a7.383,7.383,0,1,0,7.522,7.381A7.459,7.459,0,0,0,882.3,387.116Zm0,13.51a6.13,6.13,0,1,1,6.245-6.129A6.2,6.2,0,0,1,882.3,400.626Zm11.62-5.73a0.818,0.818,0,0,1-.006-0.972l0.444-.619a2.057,2.057,0,0,0,.333-1.683,2.088,2.088,0,0,0-1.063-1.36l-0.678-.359a0.826,0.826,0,0,1-.438-0.869l0.13-.747a2.075,2.075,0,0,0-.443-1.658,2.146,2.146,0,0,0-1.558-.772l-0.772-.031a0.838,0.838,0,0,1-.777-0.6l-0.224-.722a2.129,2.129,0,0,0-2.043-1.5,2.169,2.169,0,0,0-.84.169l-0.709.3a0.869,0.869,0,0,1-.964-0.21l-0.516-.562a2.149,2.149,0,0,0-3.185.02l-0.5.573a0.872,0.872,0,0,1-.964.225l-0.714-.286a2.194,2.194,0,0,0-.808-0.159,2.12,2.12,0,0,0-2.049,1.535l-0.2.731a0.845,0.845,0,0,1-.772.609l-0.766.046a2.128,2.128,0,0,0-1.549.793,2.064,2.064,0,0,0-.417,1.662l0.141,0.742a0.826,0.826,0,0,1-.422.88l-0.673.368a2.1,2.1,0,0,0-1.042,1.377,2.052,2.052,0,0,0,.359,1.677l0.454,0.609a0.816,0.816,0,0,1,0,.972l-0.443.619a2.062,2.062,0,0,0-.334,1.683,2.091,2.091,0,0,0,1.064,1.361l0.678,0.358a0.828,0.828,0,0,1,.438.87l-0.131.747a2.076,2.076,0,0,0,.443,1.657,2.146,2.146,0,0,0,1.559.773l0.772,0.03a0.84,0.84,0,0,1,.776.6l0.214,0.726a2.147,2.147,0,0,0,2.883,1.335l0.709-.3a0.866,0.866,0,0,1,.964.209L880.8,406.3a2.15,2.15,0,0,0,3.186-.02l0.5-.573a0.872,0.872,0,0,1,.965-0.225l0.714,0.286a2.21,2.21,0,0,0,.808.159,2.122,2.122,0,0,0,2.049-1.535l0.2-.732a0.844,0.844,0,0,1,.771-0.608l0.772-.046a2.136,2.136,0,0,0,1.548-.793,2.054,2.054,0,0,0,.417-1.663l-0.14-.742a0.826,0.826,0,0,1,.422-0.88l0.672-.368a2.094,2.094,0,0,0,1.043-1.376,2.055,2.055,0,0,0-.36-1.678Zm-0.433,2.021a0.827,0.827,0,0,1-.417.547l-0.673.369a2.069,2.069,0,0,0-1.058,2.2l0.141,0.742a0.8,0.8,0,0,1-.167.665,0.846,0.846,0,0,1-.62.317l-0.767.046a2.11,2.11,0,0,0-1.928,1.53l-0.2.726a0.846,0.846,0,0,1-.818.614,0.878,0.878,0,0,1-.323-0.061l-0.715-.287a2.205,2.205,0,0,0-.808-0.158,2.15,2.15,0,0,0-1.6.716l-0.506.568a0.86,0.86,0,0,1-1.272.01l-0.516-.563a2.162,2.162,0,0,0-2.424-.527l-0.709.3a0.854,0.854,0,0,1-1.147-.532l-0.214-.726a2.121,2.121,0,0,0-1.949-1.5l-0.772-.031a0.827,0.827,0,0,1-.62-0.307,0.8,0.8,0,0,1-.177-0.66l0.13-.747a2.07,2.07,0,0,0-1.1-2.184l-0.678-.358a0.824,0.824,0,0,1-.427-0.542,0.79,0.79,0,0,1,.136-0.67l0.443-.62a2.051,2.051,0,0,0-.021-2.435l-0.454-.608a0.794,0.794,0,0,1-.141-0.67,0.832,0.832,0,0,1,.417-0.548l0.673-.368a2.069,2.069,0,0,0,1.058-2.2l-0.135-.737a0.8,0.8,0,0,1,.167-0.665,0.849,0.849,0,0,1,.62-0.317l0.766-.046a2.118,2.118,0,0,0,1.929-1.529l0.2-.732a0.846,0.846,0,0,1,.819-0.614,0.9,0.9,0,0,1,.323.061l0.714,0.287a2.214,2.214,0,0,0,.808.159,2.154,2.154,0,0,0,1.606-.716l0.506-.568a0.859,0.859,0,0,1,1.272-.011l0.516,0.563a2.157,2.157,0,0,0,2.424.527l0.709-.3a0.857,0.857,0,0,1,1.147.532l0.213,0.727a2.125,2.125,0,0,0,1.95,1.5l0.772,0.031a0.845,0.845,0,0,1,.625.306,0.8,0.8,0,0,1,.177.66l-0.13.747a2.07,2.07,0,0,0,1.095,2.184l0.677,0.359a0.818,0.818,0,0,1,.428.542,0.809,0.809,0,0,1-.13.67l-0.444.619a2.051,2.051,0,0,0,.021,2.435l0.454,0.609A0.887,0.887,0,0,1,893.484,396.917Zm-9.337-4.451-2.794,2.727-0.907-.895a0.643,0.643,0,0,0-.9,0,0.62,0.62,0,0,0,0,.885l1.361,1.34a0.642,0.642,0,0,0,.453.184h0a0.638,0.638,0,0,0,.448-0.184l3.248-3.166a0.621,0.621,0,0,0,0-.886A0.656,0.656,0,0,0,884.147,392.466Z" transform="translate(-869.813 -382)"/>
</svg>
