<svg id="hart.svg" xmlns="http://www.w3.org/2000/svg" width="214.407" height="137.594" viewBox="0 0 214.407 137.594">
  <defs>
    <style>
      .cls-1 {
        fill: #5a626e;
        opacity: 0.5;
      }

      .cls-2 {
        fill: #ff1812;
      }

      .cls-2, .cls-3 {
        fill-rule: evenodd;
      }

      .cls-3 {
        fill: #2d303a;
      }
    </style>
  </defs>
  <rect id="Прямоугольник_3" data-name="Прямоугольник 3" class="cls-1" x="141.125" y="112.937" width="73.282" height="3.407" rx="1.703" ry="1.703"/>
  <rect id="Прямоугольник_3-2" data-name="Прямоугольник 3" class="cls-1" x="119.188" y="133.469" width="73.312" height="3.437" rx="1.712" ry="1.712"/>
  <path id="Прямоугольник_3-3" data-name="Прямоугольник 3" class="cls-2" d="M634.457,886.019L655.983,874a1.712,1.712,0,0,1,1.671,2.988l-21.526,12.024A1.712,1.712,0,0,1,634.457,886.019Z" transform="translate(-486.781 -857.219)"/>
  <path id="Прямоугольник_3-4" data-name="Прямоугольник 3" class="cls-2" d="M624.789,878.493l13.652-20.523a1.712,1.712,0,0,1,2.852,1.9l-13.652,20.523A1.712,1.712,0,0,1,624.789,878.493Z" transform="translate(-486.781 -857.219)"/>
  <path id="Прямоугольник_3-5" data-name="Прямоугольник 3" class="cls-2" d="M515.767,881.414l-12.1-21.648a1.722,1.722,0,1,1,3.006-1.68l12.094,21.648A1.721,1.721,0,1,1,515.767,881.414Z" transform="translate(-486.781 -857.219)"/>
  <path id="Прямоугольник_3-6" data-name="Прямоугольник 3" class="cls-2" d="M508.2,891.138l-20.645-13.73a1.722,1.722,0,0,1,1.906-2.869L510.1,888.27A1.722,1.722,0,1,1,508.2,891.138Z" transform="translate(-486.781 -857.219)"/>
  <path id="Фигура_11" data-name="Фигура 11" class="cls-3" d="M630.642,904.785a9.462,9.462,0,0,0-2.79-6.736l-12.64-12.639a9.529,9.529,0,0,0-13.474,0l-6.491,6.49-1.745-1.75v-4.4a7.929,7.929,0,0,0-6.64-7.813v-7.882a6.02,6.02,0,0,0-6.014-6.013h-17.6a6.02,6.02,0,0,0-6.014,6.013v7.9a7.929,7.929,0,0,0-6.549,7.8v4.4l-1.771,1.771-6.51-6.509a9.526,9.526,0,0,0-13.474,0l-12.64,12.638a9.539,9.539,0,0,0,0,13.473l6.51,6.51-1.6,1.6a2.552,2.552,0,0,0-.46,2.983l2.868,5.516-6.933,12.257a2.552,2.552,0,0,0-.093,2.334l13.792,29.665a2.554,2.554,0,0,0,2.316,1.477h9.642v4.6a2.555,2.555,0,0,0,2.554,2.554h3.916v4.341a9.461,9.461,0,0,0,9.45,9.45H585.84a9.46,9.46,0,0,0,9.45-9.45v-4.341h3.916a2.554,2.554,0,0,0,2.554-2.554v-4.6H611.4a2.554,2.554,0,0,0,2.316-1.477l13.792-29.665a2.555,2.555,0,0,0-.093-2.334l-6.933-12.256,2.868-5.516a2.555,2.555,0,0,0-.458-2.982l-1.574-1.579,6.53-6.53A9.462,9.462,0,0,0,630.642,904.785Zm-68.3-34.729a0.905,0.905,0,0,1,.905-0.905h17.6a0.906,0.906,0,0,1,.906.905v7.778H562.343v-7.778Zm-6.549,15.695a2.812,2.812,0,0,1,2.81-2.809h26.981a2.813,2.813,0,0,1,2.81,2.809v2.9h-32.6v-2.9ZM519.9,907.909a4.425,4.425,0,0,1,0-6.249l12.64-12.639a4.419,4.419,0,0,1,6.249,0l6.511,6.51-18.889,18.888Zm22.433,60.843h-8.013l-12.551-27,4.651-8.221,15.913,30.607v4.611h0Zm47.846,16.6a4.346,4.346,0,0,1-4.342,4.341H558.256a4.346,4.346,0,0,1-4.342-4.341v-4.342h36.268v4.342Zm6.758-23.014a2.556,2.556,0,0,0-.287,1.178V975.9H585.445A19.981,19.981,0,0,0,592,961.259c0-.046.007-0.09,0.007-0.137V942a2.554,2.554,0,0,0-5.108,0v5.809A20.034,20.034,0,0,0,572.07,941.2h-0.025a2.554,2.554,0,0,0,0,5.108h0.023a14.814,14.814,0,0,1,7.551,27.568,14.724,14.724,0,0,1-6.67,2.028H571.2a14.807,14.807,0,0,1-12.614-20.881,2.555,2.555,0,0,0-4.658-2.1q-0.223.5-.419,1l-7.193-18.821a10.719,10.719,0,0,0,8.624-18.946l19.691-7.177c-0.011.181-.019,0.363-0.019,0.548A8.692,8.692,0,0,0,586.9,917.45v4.736a2.554,2.554,0,1,0,5.108,0V909.532a8.695,8.695,0,0,0-12.879-7.624l-34.366,12.526-0.044.018a10.72,10.72,0,0,0-6.262,14.4l14.661,38.358c0,0.013.011,0.024,0.016,0.037a19.882,19.882,0,0,0,5.6,8.655H547.444V963.517a2.556,2.556,0,0,0-.287-1.178L526.14,921.916,554.3,893.76h35.59l28.071,28.154Zm-54.27-37.773a5.619,5.619,0,1,1,5.619,5.619A5.624,5.624,0,0,1,542.67,924.566Zm37.052-15.034a3.59,3.59,0,1,1,3.589,3.59A3.593,3.593,0,0,1,579.722,909.532Zm42.6,32.223-12.551,27h-8.013v-4.611l15.913-30.607Zm1.915-33.846-6.526,6.525-18.86-18.916,6.5-6.5a4.419,4.419,0,0,1,6.249,0l12.64,12.639A4.419,4.419,0,0,1,624.24,907.909Zm-58.752,36.953a2.555,2.555,0,0,0-3.5-.914l-0.03.018a2.554,2.554,0,0,0,2.58,4.409l0.031-.019A2.553,2.553,0,0,0,565.488,944.862Zm6.6,6.555a9.705,9.705,0,1,0,9.706,9.7A9.716,9.716,0,0,0,572.087,951.417Zm0,14.3a4.6,4.6,0,1,1,4.6-4.6A4.6,4.6,0,0,1,572.087,965.719Zm-23.773-43.527h-0.039a2.554,2.554,0,0,0-.011,5.108H548.3A2.554,2.554,0,0,0,548.314,922.192Zm42.946,8.234a2.551,2.551,0,1,0,.749,1.806A2.572,2.572,0,0,0,591.26,930.426Zm27.366-28.235-0.18-.181a2.554,2.554,0,1,0-3.617,3.607l0.18,0.181A2.554,2.554,0,0,0,618.626,902.191Zm-7.393-7.415-0.18-.181a2.554,2.554,0,1,0-3.617,3.607l0.18,0.181A2.554,2.554,0,0,0,611.233,894.776ZM536.7,894.59a2.555,2.555,0,0,0-3.612,0l-0.18.181a2.554,2.554,0,0,0,3.617,3.607l0.18-.181A2.554,2.554,0,0,0,536.7,894.59Zm-7.393,7.415a2.555,2.555,0,0,0-3.612,0l-0.18.181a2.554,2.554,0,1,0,3.617,3.607l0.18-.181A2.554,2.554,0,0,0,529.309,902.005Z" transform="translate(-486.781 -857.219)"/>
</svg>
