<svg xmlns="http://www.w3.org/2000/svg" width="15.938" height="27.031" viewBox="0 0 15.938 27.031">
  <defs>
    <style>
      .cls-1 {
        fill: #2d303a;
        fill-rule: evenodd;
      }
    </style>
  </defs>
  <path id="phone.svg" class="cls-1" d="M886.8,42.928h-11.84a2.009,2.009,0,0,0-2.048,1.969V67.991a2.008,2.008,0,0,0,2.048,1.967H886.8a2.009,2.009,0,0,0,2.048-1.967V44.9A2.01,2.01,0,0,0,886.8,42.928Zm-8.842,1.2H883.8a0.554,0.554,0,0,1,0,.948h-5.845A0.556,0.556,0,0,1,877.954,44.124Zm2.923,23.891a1.257,1.257,0,1,1,1.305-1.257A1.285,1.285,0,0,1,880.877,68.015Zm6.433-4.3H874.443V46.251H887.31V63.711Z" transform="translate(-872.906 -42.938)"/>
</svg>
