<svg id="podv.svg" xmlns="http://www.w3.org/2000/svg" width="73.279" height="81.937" viewBox="0 0 73.279 81.937">
  <defs>
    <style>
      .cls-1 {
        fill: #2d303a;
        fill-rule: evenodd;
      }

      .cls-2 {
        fill: #ff1812;
      }
    </style>
  </defs>
  <path id="Фигура_2" data-name="Фигура 2" class="cls-1" d="M1001.28,719.577H991.5a5.034,5.034,0,0,0-5.028,5.029v10.171H974.79a3.645,3.645,0,0,0-3.638-3.52h-2.958a3.645,3.645,0,0,0-3.638,3.52H952.873V724.606a5.035,5.035,0,0,0-5.029-5.029h-9.783a5.034,5.034,0,0,0-5.028,5.029v22.263a5.034,5.034,0,0,0,5.028,5.029h9.783a5.034,5.034,0,0,0,5.028-5.029v-8.891h11.684a3.643,3.643,0,0,0,3.517,3.516v12.083a1.6,1.6,0,0,0,3.2,0V741.494a3.644,3.644,0,0,0,3.517-3.516h11.684v8.891A5.034,5.034,0,0,0,991.5,751.9h9.778a5.031,5.031,0,0,0,5.03-5.028V724.606A5.031,5.031,0,0,0,1001.28,719.577Zm-51.608,11.389L944.6,736.04a1.6,1.6,0,1,0,2.263,2.263l2.811-2.811v3.1l-5.074,5.074a1.6,1.6,0,0,0,2.263,2.263l2.811-2.812v3.749a1.83,1.83,0,0,1-1.828,1.828h-9.783a1.83,1.83,0,0,1-1.828-1.828V743.12l2.811,2.811a1.6,1.6,0,1,0,2.263-2.262l-5.074-5.075v-3.1l2.811,2.811a1.6,1.6,0,0,0,2.263-2.263l-5.074-5.074v-3.1l2.811,2.812a1.6,1.6,0,1,0,2.263-2.263l-4.786-4.787a1.826,1.826,0,0,1,1.54-.848h9.783a1.828,1.828,0,0,1,1.541.848l-4.787,4.787a1.6,1.6,0,0,0,2.263,2.263l2.811-2.812v3.1Zm21.921,6.891a0.441,0.441,0,0,1-.441.44h-2.958a0.441,0.441,0,0,1-.441-0.44V734.9a0.442,0.442,0,0,1,.441-0.441h2.958a0.442,0.442,0,0,1,.441.441v2.959Zm31.517-6.891-5.071,5.074a1.6,1.6,0,1,0,2.261,2.263l2.81-2.811v3.1l-5.071,5.074a1.6,1.6,0,1,0,2.261,2.263l2.81-2.811v3.748a1.83,1.83,0,0,1-1.83,1.828H991.5a1.83,1.83,0,0,1-1.828-1.828V743.12l2.811,2.812a1.6,1.6,0,1,0,2.263-2.263l-5.074-5.074v-3.1l2.811,2.811a1.6,1.6,0,0,0,2.263-2.263l-5.074-5.074v-3.1l2.811,2.811a1.6,1.6,0,1,0,2.263-2.262l-4.786-4.787a1.826,1.826,0,0,1,1.54-.848h9.778a1.846,1.846,0,0,1,1.55.848l-4.791,4.787a1.6,1.6,0,1,0,2.261,2.262l2.81-2.811v3.1h0Zm-1.83,38.211H991.5a5.034,5.034,0,0,0-5.028,5.029v9.531H974.793v-1.059a4.066,4.066,0,0,0-3.557-4.028,1.6,1.6,0,0,0,.037-0.341V767.577a1.6,1.6,0,0,0-3.2,0v10.732a1.6,1.6,0,0,0,.037.341,4.066,4.066,0,0,0-3.557,4.028v1.059H952.872v-9.531a5.034,5.034,0,0,0-5.028-5.029h-9.783a5.034,5.034,0,0,0-5.028,5.029v22.263a5.034,5.034,0,0,0,5.028,5.028h9.783a5.033,5.033,0,0,0,5.028-5.028v-9.532h11.681V788a4.065,4.065,0,0,0,4.061,4.061h2.118A4.065,4.065,0,0,0,974.793,788v-1.059h11.681v9.532A5.034,5.034,0,0,0,991.5,801.5h9.778a5.031,5.031,0,0,0,5.03-5.028V774.206A5.031,5.031,0,0,0,1001.28,769.177Zm-51.608,11.389L944.6,785.64a1.6,1.6,0,0,0,2.263,2.263l2.811-2.812v3.1l-5.074,5.074a1.6,1.6,0,1,0,2.263,2.263l2.811-2.812v3.749a1.831,1.831,0,0,1-1.828,1.83h-9.783a1.831,1.831,0,0,1-1.828-1.829V792.72l2.811,2.811a1.6,1.6,0,1,0,2.263-2.262l-5.074-5.075v-3.1l2.811,2.812a1.6,1.6,0,1,0,2.263-2.263l-5.074-5.075v-3.1l2.811,2.811a1.6,1.6,0,0,0,2.262-2.263l-4.786-4.787a1.829,1.829,0,0,1,1.541-.847h9.783a1.827,1.827,0,0,1,1.54.847l-4.786,4.787a1.6,1.6,0,1,0,2.263,2.263l2.811-2.811v3.1h0ZM971.593,788a0.862,0.862,0,0,1-.861.861h-2.118a0.862,0.862,0,0,1-.861-0.861v-5.318a0.862,0.862,0,0,1,.861-0.861h2.118a0.862,0.862,0,0,1,.861.861V788Zm31.517-7.43-5.071,5.074a1.6,1.6,0,1,0,2.261,2.263l2.81-2.811v3.1l-5.071,5.074a1.6,1.6,0,1,0,2.261,2.263l2.81-2.812v3.749a1.831,1.831,0,0,1-1.83,1.829H991.5a1.831,1.831,0,0,1-1.828-1.829V792.72l2.811,2.812a1.6,1.6,0,0,0,2.263-2.263l-5.074-5.074v-3.1l2.811,2.812a1.6,1.6,0,1,0,2.263-2.263l-5.074-5.074v-3.1l2.811,2.811a1.6,1.6,0,1,0,2.263-2.262l-4.786-4.787a1.826,1.826,0,0,1,1.54-.848h9.778a1.846,1.846,0,0,1,1.55.848l-4.791,4.787a1.6,1.6,0,1,0,2.261,2.262l2.81-2.811v3.1h0ZM970.8,759.406a1.6,1.6,0,1,0,.469,1.132A1.613,1.613,0,0,0,970.8,759.406Z" transform="translate(-933.031 -719.563)"/>
  <rect id="Прямоугольник_5" data-name="Прямоугольник 5" class="cls-2" x="7.969" y="36.656" width="3.188" height="9.594" rx="1.594" ry="1.594"/>
  <rect id="Прямоугольник_5-2" data-name="Прямоугольник 5" class="cls-2" x="61.563" y="36.656" width="3.219" height="9.594" rx="1.6" ry="1.6"/>
</svg>
