<svg xmlns="http://www.w3.org/2000/svg" width="24.968" height="20" viewBox="0 0 24.968 20">
  <defs>
    <style>
      .cls-1 {
        fill: red;
        
      }
    </style>
  </defs>
  <path id="services.svg" class="cls-1" d="M885.92,211.7l2.366,0.788a0.514,0.514,0,0,0,.163.026,0.482,0.482,0,0,0,.453-0.295l0.572-1.476a0.414,0.414,0,0,0-.018-0.341,0.468,0.468,0,0,0-.273-0.23l-2.366-.788a0.494,0.494,0,0,0-.616.269l-0.572,1.477a0.415,0.415,0,0,0,.018.341A0.466,0.466,0,0,0,885.92,211.7Zm1.025-1.325,1.46,0.486-0.247.636-1.46-.486ZM875.2,222.5a0.469,0.469,0,1,1-.5.467A0.487,0.487,0,0,1,875.2,222.5Zm10.558-6.945,0.134-.124a6.866,6.866,0,0,1,2.193-1.366l3.155-1.23s0.856-.342,1.048-0.443a3.776,3.776,0,0,0,.955-5.87,0.505,0.505,0,0,0-.449-0.143,0.474,0.474,0,0,0-.363.283l-1.15,2.871-0.858-.295,1.209-3.049a0.417,0.417,0,0,0-.077-0.434,0.5,0.5,0,0,0-.441-0.162,4.1,4.1,0,0,0-3.417,2.71l-1.986-.681a0.512,0.512,0,0,0-.4.03,0.45,0.45,0,0,0-.236.307l-0.457,2.292a6.134,6.134,0,0,1-1.457,2.893l-4.226-3.916,0.3-.278a0.423,0.423,0,0,0,0-.631l-0.317-.294a3.182,3.182,0,0,1,3.107-.99,0.5,0.5,0,0,0,.5-0.207,0.42,0.42,0,0,0-.037-0.511,4.272,4.272,0,0,0-1.571-1.132,4.669,4.669,0,0,0-4.525.5l-0.263-.243a0.507,0.507,0,0,0-.681,0l-2.923,2.709a0.423,0.423,0,0,0,0,.627,0.553,0.553,0,0,1-.169.743,0.662,0.662,0,0,1-.8.156,0.509,0.509,0,0,0-.677,0L869.448,211a0.423,0.423,0,0,0,0,.631l3.1,2.875a0.511,0.511,0,0,0,.681,0l1.422-1.319a0.423,0.423,0,0,0,0-.626,0.553,0.553,0,0,1,.17-0.741,0.662,0.662,0,0,1,.8-0.158,0.51,0.51,0,0,0,.676,0l0.265-.247,4.249,3.938-6.98,6.468a1.6,1.6,0,0,0,0,2.39,1.929,1.929,0,0,0,2.578,0l6.98-6.469,7.5,6.949a0.511,0.511,0,0,0,.681,0l1.676-1.553a0.423,0.423,0,0,0,0-.631Zm4.647-8.858-0.884,2.231-0.918-.314A3.058,3.058,0,0,1,890.4,206.694Zm-9.889-.7c0.077,0.033.153,0.069,0.227,0.106a3.971,3.971,0,0,0-2.512,1.291l-1.151-1.067A3.642,3.642,0,0,1,880.511,205.992Zm-4.726.4,2.42,2.243-2.19,2.031-2.421-2.244Zm-2.895,7.169-2.421-2.243,0.742-.688,2.421,2.244Zm1.257-2.37a1.754,1.754,0,0,0-.4.531l-1.295-1.2a1.927,1.927,0,0,0,.574-0.368,1.751,1.751,0,0,0,.427-0.6l1.336,1.238A1.919,1.919,0,0,0,874.147,211.187Zm3.1-.409,1-.922,4.249,3.937-1,.923Zm-1.515,12.8a0.911,0.911,0,0,1-1.217,0,0.759,0.759,0,0,1,0-1.128l8.875-8.224a7.071,7.071,0,0,0,2.163-3.812l0.353-1.77,5.484,1.881a0.493,0.493,0,0,0,.619-0.263l0.99-2.472a2.826,2.826,0,0,1-.623,3.405,2.734,2.734,0,0,1-.571.422c-0.112.059-1.008,0.421-1.008,0.421l-3.094,1.205a7.842,7.842,0,0,0-2.5,1.558Zm15.5,0.165-7.158-6.634,1-.922,7.158,6.633Z" transform="translate(-869.313 -204.813)"/>
</svg>
