<svg id="techperson.svg" xmlns="http://www.w3.org/2000/svg" width="100" height="81.625" viewBox="0 0 100 81.625">
  <defs>
    <style>
      .cls-1 {
        fill: #2d303a;
      }

      .cls-1, .cls-2 {
        fill-rule: evenodd;
      }

      .cls-2 {
        fill: #ff4641;
      }
    </style>
  </defs>
  <path id="Фигура_1" data-name="Фигура 1" class="cls-1" d="M108.164,788.9h0.1v-7.665a28.662,28.662,0,0,0-1.381-8.168l-4.165-9.716H95.929l-4.2,9.816a28.476,28.476,0,0,0-1.343,8.068v2.555H86.551a3.838,3.838,0,0,1-3.832-3.833v-5.32a20.434,20.434,0,0,0,10.219-17.673v-0.181a5.1,5.1,0,0,0,3.832-4.928,7.136,7.136,0,0,0-1.349-4.379,4.026,4.026,0,0,0,.072-0.731v-2.555a22.994,22.994,0,1,0-45.987,0v2.555a4.026,4.026,0,0,0,.072.731,7.137,7.137,0,0,0-1.349,4.379,5.1,5.1,0,0,0,3.832,4.928v0.181A20.434,20.434,0,0,0,62.28,774.64v5.32a3.838,3.838,0,0,1-3.832,3.833H52.061v-1.8a8.128,8.128,0,0,0-2.274-14.776l-1.559-.352v6.708H45.674v-6.71l-1.561.354a8.129,8.129,0,0,0-2.271,14.776v3.213A15.336,15.336,0,0,0,32.9,799.122V800.4h2.555v-1.278a12.791,12.791,0,0,1,11.5-12.709V800.4h2.555V786.348h3.832V800.4h2.555V786.348h2.555a6.335,6.335,0,0,0,1.5-.2,12.764,12.764,0,0,0,25.093,0,6.336,6.336,0,0,0,1.5.2h2.555V800.4h2.555V786.348h3.832V800.4h2.555V786.413a12.792,12.792,0,0,1,11.5,12.709V800.4H112.1v-1.278A15.246,15.246,0,0,0,108.164,788.9Zm-57.949-8.809-0.709.352v3.347H48.229a15.246,15.246,0,0,0-3.832.5v-3.851l-0.709-.352a5.628,5.628,0,0,1-.568-9.759v5.794h7.664v-5.8A5.63,5.63,0,0,1,50.215,780.094Zm42.724-29.333a7.864,7.864,0,0,0,.972-0.739,5.368,5.368,0,0,1,.305,1.836,2.547,2.547,0,0,1-1.277,2.2v-3.3ZM71.222,723.82V732.7h2.555V723.82a20.434,20.434,0,0,1,19.127,19.7c-4.546-2.423-14.089-3.16-20.4-3.16s-15.858.737-20.4,3.159A20.432,20.432,0,0,1,71.222,723.82ZM52.061,754.056a2.543,2.543,0,0,1-1.278-2.2,5.358,5.358,0,0,1,.305-1.837,7.657,7.657,0,0,0,.972.739v3.3Zm0-7.3c0.25-1.3,7.681-3.836,20.438-3.836s20.2,2.535,20.439,3.832c0,2.511-7.645,5.11-20.439,5.11S52.069,749.262,52.062,746.752Zm2.553,10.215V752.03c5.632,2.146,14.361,2.382,17.884,2.382s12.252-.236,17.884-2.382v4.937A17.884,17.884,0,0,1,54.616,756.967ZM72.5,794.012a10.23,10.23,0,0,1-10.145-9.036,6.351,6.351,0,0,0,2.481-5.015V775.9a20.268,20.268,0,0,0,15.329,0v4.06a6.351,6.351,0,0,0,2.481,5.015A10.23,10.23,0,0,1,72.5,794.012Zm23.99-10.219H92.939v-2.555a25.988,25.988,0,0,1,1.174-7.161l3.5-8.168h0.436v11.732A3.8,3.8,0,0,0,96.49,783.793Zm2.836-1.277a1.278,1.278,0,1,1,1.277-1.278A1.279,1.279,0,0,1,99.326,782.516Zm6.387,4.18a15.3,15.3,0,0,0-4.378-2.209,3.808,3.808,0,0,0-.732-6.846V765.909h0.436l3.462,8.068a26.274,26.274,0,0,1,1.212,7.262V786.7h0ZM73.777,758.245h11.5V755.69H71.222v12.774h2.555V758.245ZM55.893,737.806h2.555v2.555H55.893v-2.555ZM61,736.528h2.555v2.555H61v-2.555Z" transform="translate(-22.5 -721.188)"/>
  <path id="line" class="cls-2" d="M34.106,800.406h76.788a1.2,1.2,0,0,1,1.2,1.2v0.006a1.2,1.2,0,0,1-1.2,1.2H34.106a1.2,1.2,0,0,1-1.2-1.2v-0.006A1.2,1.2,0,0,1,34.106,800.406Zm81.594,0h5.6a1.2,1.2,0,0,1,1.2,1.2v0.006a1.2,1.2,0,0,1-1.2,1.2h-5.6a1.2,1.2,0,0,1-1.2-1.2v-0.006A1.2,1.2,0,0,1,115.7,800.406Zm-92,0h5.6a1.2,1.2,0,0,1,1.2,1.2v0.006a1.2,1.2,0,0,1-1.2,1.2H23.7a1.2,1.2,0,0,1-1.2-1.2v-0.006A1.2,1.2,0,0,1,23.7,800.406Z" transform="translate(-22.5 -721.188)"/>
</svg>
