<svg id="tormoz.svg" xmlns="http://www.w3.org/2000/svg" width="99.75" height="83.692" viewBox="0 0 99.75 83.692">
  <defs>
    <style>
      .cls-1 {
        fill: #2d303a;
      }

      .cls-1, .cls-3 {
        fill-rule: evenodd;
      }

      .cls-2, .cls-3 {
        fill: none;
        stroke: #ff1812;
        stroke-width: 4px;
      }
    </style>
  </defs>
  <path id="Фигура_9" data-name="Фигура 9" class="cls-1" d="M49.246,988.459l-0.028-.029a1.6,1.6,0,0,0-2.261,2.256l0.029,0.029A1.6,1.6,0,0,0,49.246,988.459Zm32.988-29.924a4.8,4.8,0,1,0,4.784,4.8A4.8,4.8,0,0,0,82.235,958.535Zm0,6.4a1.6,1.6,0,1,1,1.595-1.6A1.6,1.6,0,0,1,82.235,964.933Zm-15.951-6.4a4.8,4.8,0,1,0,4.783,4.8A4.8,4.8,0,0,0,66.283,958.535Zm0,6.4a1.6,1.6,0,1,1,1.594-1.6A1.6,1.6,0,0,1,66.283,964.933Zm7.976,1.6a4.8,4.8,0,1,0,4.783,4.8A4.8,4.8,0,0,0,74.259,966.536Zm0,6.4a1.6,1.6,0,1,1,1.594-1.6A1.6,1.6,0,0,1,74.259,972.933Zm0-22.4a4.8,4.8,0,1,0,4.783,4.8A4.8,4.8,0,0,0,74.259,950.534Zm0,6.4a1.6,1.6,0,1,1,1.594-1.6A1.6,1.6,0,0,1,74.259,956.932ZM104.7,932.8a42.837,42.837,0,0,0-28.717-12.615,3.195,3.195,0,0,0-3.319,3.2v1.283a38.275,38.275,0,0,0-25.69,11.3,38.812,38.812,0,0,0-5.042,48.519,1.6,1.6,0,1,0,2.669-1.75,35.727,35.727,0,0,1,4.628-44.507,35.113,35.113,0,0,1,23.435-10.363v16.023a19.511,19.511,0,1,0,20.981,21.048h15.973a35.408,35.408,0,0,1-54.8,28.085,1.6,1.6,0,0,0-1.754,2.672,38.578,38.578,0,0,0,21.218,6.35c1.23,0,2.464-.06,3.695-0.18a38.646,38.646,0,0,0,34.83-36.927h1.278a3.158,3.158,0,0,0,2.3-.982,3.228,3.228,0,0,0,.889-2.348A43.092,43.092,0,0,0,104.7,932.8ZM74.259,979.648a16.315,16.315,0,1,1,16.264-16.315A16.308,16.308,0,0,1,74.259,979.648Zm19.388-17.914h0v0a19.515,19.515,0,0,0-17.794-17.851h0V923.378h0a40.092,40.092,0,0,1,38.23,38.356H93.647ZM48.4,953.1a1.593,1.593,0,0,0-2.013,1.02l-0.052.16a1.6,1.6,0,0,0,1.027,2.013,1.59,1.59,0,0,0,2.007-1.03l0.047-.144A1.6,1.6,0,0,0,48.4,953.1Zm0.011,14.224-0.022-.146a1.595,1.595,0,1,0-3.155.464l0.026,0.17a1.6,1.6,0,0,0,1.574,1.355,1.7,1.7,0,0,0,.245-0.018A1.6,1.6,0,0,0,48.41,967.326Zm4.534,11.208-0.085-.121a1.6,1.6,0,1,0-2.609,1.839l0.1,0.141A1.6,1.6,0,1,0,52.945,978.534Zm2.788-35.978a1.592,1.592,0,0,0-2.255,0l-0.119.121a1.6,1.6,0,0,0,.017,2.262,1.592,1.592,0,0,0,2.255-.016l0.105-.107A1.6,1.6,0,0,0,55.733,942.556ZM87.6,987.791a1.591,1.591,0,0,0-2.125-.755l-0.134.063a1.6,1.6,0,0,0,.677,3.048A1.578,1.578,0,0,0,86.7,990l0.155-.073A1.6,1.6,0,0,0,87.6,987.791ZM73.68,989.559l-0.147,0a1.6,1.6,0,0,0-.089,3.2l0.171,0h0.033A1.6,1.6,0,0,0,73.68,989.559ZM67,936.416a1.594,1.594,0,0,0-2.017-1.01l-0.159.053a1.6,1.6,0,0,0,.512,3.115,1.58,1.58,0,0,0,.512-0.085l0.145-.049A1.6,1.6,0,0,0,67,936.416Zm-4.983,50.1-0.133-.071a1.6,1.6,0,0,0-1.51,2.817l0.148,0.08A1.6,1.6,0,0,0,62.013,986.517ZM101.785,967.2a1.594,1.594,0,0,0-1.875,1.256l-0.03.15a1.595,1.595,0,1,0,3.125.638l0.033-.164A1.6,1.6,0,0,0,101.785,967.2Zm-4.663,11.976a1.592,1.592,0,0,0-2.237.281l-0.09.115a1.6,1.6,0,0,0,.262,2.247,1.59,1.59,0,0,0,2.24-.263l0.106-.136A1.6,1.6,0,0,0,97.122,979.179Zm9.313-32.138-0.006-.013a1.6,1.6,0,1,0-2.853,1.43L103.6,948.5A1.6,1.6,0,1,0,106.435,947.041Zm-3.482-5.579A36.26,36.26,0,0,0,83.916,928.5a1.6,1.6,0,0,0-.853,3.083A33.05,33.05,0,0,1,100.415,943.4,1.6,1.6,0,1,0,102.953,941.462Z" transform="translate(-35.656 -920.188)"/>
  <circle id="Эллипс_2" data-name="Эллипс 2" class="cls-2" cx="5.734" cy="78.502" r="3.203"/>
  <path id="Прямоугольник_4" data-name="Прямоугольник 4" class="cls-3" d="M99,998.687h20a1.592,1.592,0,1,1,0,3.183H99A1.592,1.592,0,1,1,99,998.687Z" transform="translate(-35.656 -920.188)"/>
  <rect id="Прямоугольник_4-2" data-name="Прямоугольник 4" class="cls-2" x="74.532" y="70.5" width="23.218" height="3.187" rx="1.594" ry="1.594"/>
</svg>
