<svg xmlns="http://www.w3.org/2000/svg" width="10" height="12" viewBox="0 0 10 12">
  <defs>
    <style>
      .cls-1 {
        fill: #dde9ff;
        fill-rule: evenodd;
      }
    </style>
  </defs>
  <path id="arrow-white.svg" class="cls-1" d="M412.944,379.674l0-.018v8.03l2.539-2.525a0.668,0.668,0,0,1,.935,0l0.394,0.393a0.657,0.657,0,0,1,0,.928l-4.34,4.327a0.666,0.666,0,0,1-.934,0l-4.342-4.327a0.657,0.657,0,0,1,0-.928l0.395-.393a0.654,0.654,0,0,1,.465-0.191,0.635,0.635,0,0,1,.456.191l2.552,2.553v-8.049a0.681,0.681,0,0,1,.676-0.665h0.558A0.668,0.668,0,0,1,412.944,379.674Z" transform="translate(-407 -379)"/>
</svg>
