<svg xmlns="http://www.w3.org/2000/svg" width="41.718" height="38.156" viewBox="0 0 41.718 38.156">
  <defs>
    <style>
      .cls-1 {
        fill: #fff;
        fill-rule: evenodd;
      }
    </style>
  </defs>
  <path id="garage.svg" class="cls-1" d="M237.617,319.471l-2.766-2.071-14.744-11.186a5.093,5.093,0,0,0-6.138,0L199.225,317.4l-2.766,2.071a0.694,0.694,0,0,0,.834,1.11l1.669-1.249v2.229a1.676,1.676,0,0,0-.408.3l-0.365.315a2.538,2.538,0,0,0-1.263,1.771,2.71,2.71,0,0,0,.071,1.27,0.9,0.9,0,0,1-.145.738,4.009,4.009,0,0,0-.366,3.729,2.535,2.535,0,0,0,.284.49,0.928,0.928,0,0,1,.152.768,2.944,2.944,0,0,0-.073.433,5.711,5.711,0,0,0,.174,1.71,3.068,3.068,0,0,0,.845,1.773,1.8,1.8,0,0,0,1.095.423v2.092h-1.844a0.9,0.9,0,0,0-.894,1.037l0.749,4.94h36.161a1.98,1.98,0,0,0,1.979-1.976V319.332l1.669,1.25A0.695,0.695,0,1,0,237.617,319.471ZM198.383,332.8a4.524,4.524,0,0,1-.149-1.3,1.424,1.424,0,0,1,.038-0.223,2.325,2.325,0,0,0-.386-1.929,1.25,1.25,0,0,1-.129-0.222,2.614,2.614,0,0,1,.246-2.392,2.266,2.266,0,0,0,.326-1.911,1.372,1.372,0,0,1-.037-0.622,1.141,1.141,0,0,1,.583-0.816l0.632-.514a0.62,0.62,0,0,1,.339-0.165,1.074,1.074,0,0,1,.175-0.021l0.034,0a1.717,1.717,0,0,1,.244.015,1.5,1.5,0,0,1,1.148.733,1.135,1.135,0,0,1,.088.731,2.253,2.253,0,0,0-.034.347,2.092,2.092,0,0,0,.462,1.426,0.858,0.858,0,0,1,.172.367,1.606,1.606,0,0,1,0,.579,3.465,3.465,0,0,1-.212.725,3.88,3.88,0,0,1-.455.858,2.34,2.34,0,0,0-.179,2.3,1.9,1.9,0,0,1,.07,1.255,2.972,2.972,0,0,1-1.529,1.663,2.288,2.288,0,0,1-.343.141,0.778,0.778,0,0,1-.713-0.016A2.087,2.087,0,0,1,198.383,332.8Zm2.762,9.162h-2.976l-0.485-3.2h3.946Zm4.769,0v-2.082h22.943v2.082H205.914Zm22.943-9.022v2.082H205.914v-2.082h22.943Zm-22.943-1.388v-2.083h22.943v2.083H205.914Zm22.943-3.471H205.914V326h22.943v2.082Zm-22.943,8.329h22.943V338.5H205.914v-2.082Zm22.943-11.8H205.914v-2.082h22.943v2.082Zm4.278,17.351h-2.888V321.145H204.524v20.821h-1.973l0.539-3.556a0.9,0.9,0,0,0-.89-1.032h-1.848v-2.4l0.116-.056a4.277,4.277,0,0,0,2.222-2.5,3.3,3.3,0,0,0-.125-2.208,1.107,1.107,0,0,1-.069-0.731,0.629,0.629,0,0,1,.1-0.2,5.251,5.251,0,0,0,.623-1.164,3.9,3.9,0,0,0,.317-1.787,2.69,2.69,0,0,0-.033-0.3,2.223,2.223,0,0,0-.462-0.976,0.738,0.738,0,0,1-.142-0.6,2.518,2.518,0,0,0-.213-1.66,2.89,2.89,0,0,0-2.187-1.469c-0.038-.006-0.077-0.01-0.115-0.014l15.389-11.675a2.109,2.109,0,0,1,2.539,0l15.416,11.7v20.045A0.589,0.589,0,0,1,233.135,341.966Zm0.589-22.375-14.575-11.059a3.5,3.5,0,0,0-4.222,0l-14.575,11.059v-1.3l2.5-1.873a0.7,0.7,0,0,0,.077-0.087l11.878-9.012a3.7,3.7,0,0,1,4.456,0l9.02,6.843a0.648,0.648,0,0,0,.154.173l5.284,3.956v1.3Z" transform="translate(-196.188 -305.188)"/>
</svg>
