<svg xmlns="http://www.w3.org/2000/svg" width="42" height="42" viewBox="0 0 42 42">
  <defs>
    <style>
      .cls-1 {
        fill: #fff;
        fill-rule: evenodd;
      }
    </style>
  </defs>
  <path id="mail.svg" class="cls-1" d="M977,318.9a0.817,0.817,0,0,0-.155-0.48,0.8,0.8,0,0,0-.184-0.184h0L969.42,313a0.761,0.761,0,0,0-.131-0.077v-7.8A3.12,3.12,0,0,0,966.172,302H945.828a3.12,3.12,0,0,0-3.117,3.117v7.8a0.761,0.761,0,0,0-.131.077l-7.241,5.239h0a0.813,0.813,0,0,0-.339.664h0V343.18a0.82,0.82,0,0,0,.82.82h40.36l0.032,0A0.819,0.819,0,0,0,977,343.18V318.9h0Zm-7.71-3.973,5.491,3.973-5.491,3.974v-7.947Zm-24.937-9.808a1.478,1.478,0,0,1,1.476-1.476h20.344a1.478,1.478,0,0,1,1.476,1.476v1.313H950.381a0.82,0.82,0,1,0,0,1.64h17.267v15.989l-8.247,5.968-2.92-2.113a0.82,0.82,0,0,0-.962,0l-2.92,2.113-8.247-5.968V305.117Zm-1.641,9.808v7.947L937.22,318.9Zm-6.07,5.579L951.2,331.039l-14.558,10.535V320.5Zm1.712,21.855L956,329.591l6.99,5.057h-3.805a0.821,0.821,0,0,0,0,1.641h6.072l2.268,1.641H955.48a0.82,0.82,0,0,0,0,1.64h14.312l3.855,2.789H938.353Zm37.006-.785L960.8,331.039,975.359,320.5v21.07Zm-22.8-3.4a0.818,0.818,0,1,0,.241.58A0.823,0.823,0,0,0,952.56,338.17Zm-5.541-31.74a0.82,0.82,0,1,0,0,1.64h0.007A0.82,0.82,0,0,0,947.019,306.43Zm8.979,3.2a6.241,6.241,0,0,0-6.234,6.234v0.083A6.24,6.24,0,0,0,956,322.184h3.981a0.82,0.82,0,0,0,0-1.64H956a4.6,4.6,0,0,1-4.593-4.594v-0.083a4.593,4.593,0,1,1,9.186,0v1.315a0.737,0.737,0,0,1-1.474,0V315.7a3.367,3.367,0,0,0-3.363-3.363,3.528,3.528,0,0,0,0,7.055h1.02a0.821,0.821,0,0,0,0-1.641h-1.02a1.887,1.887,0,1,1,0-3.773,1.723,1.723,0,0,1,1.722,1.722v1.485a2.378,2.378,0,0,0,4.756,0v-1.315A6.242,6.242,0,0,0,956,309.633Zm5.413,14.187H950.584a0.821,0.821,0,0,0,0,1.641h10.827A0.821,0.821,0,1,0,961.411,323.82Z" transform="translate(-935 -302)"/>
</svg>
