<svg xmlns="http://www.w3.org/2000/svg" width="41.812" height="42" viewBox="0 0 41.812 42">
  <defs>
    <style>
      .cls-1 {
        fill: #fff;
        fill-rule: evenodd;
      }
    </style>
  </defs>
  <path id="phone.svg" class="cls-1" d="M595.776,302.092H578.214a3.082,3.082,0,0,0-3.072,3.083v35.833a3.082,3.082,0,0,0,3.072,3.084h17.562a3.082,3.082,0,0,0,3.072-3.084V305.175A3.082,3.082,0,0,0,595.776,302.092Zm-19.239,5.6h20.916v26.6H576.537v-26.6Zm1.677-4.2h17.562a1.682,1.682,0,0,1,1.677,1.683v1.117H576.537v-1.117A1.682,1.682,0,0,1,578.214,303.492Zm17.562,39.2H578.214a1.682,1.682,0,0,1-1.677-1.684v-5.316h20.916v5.316A1.682,1.682,0,0,1,595.776,342.692Zm-8.781-6.3a2.8,2.8,0,1,0,2.789,2.8A2.8,2.8,0,0,0,587,336.392Zm0,4.2a1.4,1.4,0,1,1,1.394-1.4A1.4,1.4,0,0,1,587,340.592Zm-2.789-35H587a0.7,0.7,0,0,0,0-1.4h-2.789A0.7,0.7,0,0,0,584.206,305.592Zm4.881,0h0.7a0.7,0.7,0,0,0,0-1.4h-0.7A0.7,0.7,0,0,0,589.087,305.592Zm16.462-.3a0.694,0.694,0,0,0-.986,0,0.7,0.7,0,0,0,0,.99,6.735,6.735,0,0,1,0,9.487,0.7,0.7,0,0,0,0,.989,0.7,0.7,0,0,0,.986,0A8.139,8.139,0,0,0,605.549,305.29Zm-2.936,1.593a0.7,0.7,0,0,0-.986.99,4.609,4.609,0,0,1,0,6.494,0.7,0.7,0,0,0,.493,1.195,0.7,0.7,0,0,0,.493-0.2A6.014,6.014,0,0,0,602.613,306.883Zm-33.186-.6a0.7,0.7,0,0,0,0-.99,0.694,0.694,0,0,0-.986,0,8.139,8.139,0,0,0,0,11.466,0.7,0.7,0,0,0,.986,0,0.7,0.7,0,0,0,0-.989A6.733,6.733,0,0,1,569.427,306.28Zm2.936,0.41a0.7,0.7,0,0,0-.986,0,6.014,6.014,0,0,0,0,8.474,0.7,0.7,0,0,0,.986,0,0.7,0.7,0,0,0,0-.99,4.609,4.609,0,0,1,0-6.494A0.7,0.7,0,0,0,572.363,306.69Z" transform="translate(-566.094 -302.094)"/>
</svg>
