<svg id="icons-sale.svg" xmlns="http://www.w3.org/2000/svg" width="1118.469" height="416" viewBox="0 0 1118.469 416">
  <defs>
    <style>
      .cls-1 {
        fill: #dde9ff;
        fill-rule: evenodd;
        opacity: 0.05;
      }
    </style>
  </defs>
  <path id="delivery" class="cls-1" d="M139.632,209.208l-3.659-3.746a0.772,0.772,0,0,0,.162-0.96l-0.409-.708a3.259,3.259,0,0,0-4.459-1.146l-5.109,2.95-0.843-1.461a1.6,1.6,0,0,0-2.194-.564L97.079,218.608a1.6,1.6,0,0,0-.609,2.182l6.954,12.044a0.783,0.783,0,0,0,1.356-.783l-6.953-12.044a0.051,0.051,0,0,1,.02-0.07L123.888,204.9a0.051,0.051,0,0,1,.07.018l6.954,12.044a0.783,0.783,0,0,0,1.356-.783l-0.434-.753,8-4.619h0l0,0a2.56,2.56,0,0,1,2.977.289l-2.109,1.218a0.775,0.775,0,0,0-.3,1.055l0.818,1.417a2.431,2.431,0,0,0,3.327.854l0.768-.443,1.688,2.922-1.774,1.024a4.992,4.992,0,0,0-8.118,4.687l-0.326.188-2.889-5a0.783,0.783,0,0,0-1.356.783l2.888,5-14.07,8.124a4.992,4.992,0,0,0-8.118,4.687l-3.9,2.25a0.051,0.051,0,0,1-.071-0.018l-0.843-1.461,2.938-1.7a0.767,0.767,0,1,0-.767-1.328l-6.51,3.758a0.767,0.767,0,1,0,.767,1.329l2.215-1.279,0.844,1.461a1.6,1.6,0,0,0,2.194.564l3.663-2.115c0.009,0.014.016,0.03,0.025,0.044a4.96,4.96,0,0,0,8.59-4.959l-0.027-.043,15.283-8.824c0.009,0.015.016,0.03,0.025,0.045a4.961,4.961,0,0,0,8.59-4.96l-0.027-.043,2.217-1.28A0.775,0.775,0,0,0,148.75,218l-4.09-7.085A4.072,4.072,0,0,0,139.632,209.208Zm-12.707-2.282,5.109-2.949a1.707,1.707,0,0,1,2.336.6l0.025,0.044-6.6,3.811Zm4.142,7.174-2.506-4.34,6.026-3.479,3.613,3.7-7.133,4.119h0Zm-11.305,25.419a3.324,3.324,0,1,1,1.277-4.575A3.363,3.363,0,0,1,119.762,239.519Zm23.871-13.782a3.324,3.324,0,1,1,1.277-4.575A3.364,3.364,0,0,1,143.633,225.737Zm0.924-11.869-0.769.444a0.879,0.879,0,0,1-1.2-.309l-0.435-.753,1.537-.887,0.87,1.5h0Zm-27.25,21.4a1.586,1.586,0,1,0,2.194.564A1.6,1.6,0,0,0,117.307,235.268Zm23.872-13.782a1.586,1.586,0,1,0,2.194.564A1.6,1.6,0,0,0,141.179,221.486Zm-9.594,1.761-10.127,5.847a0.767,0.767,0,1,0,.767,1.328l10.127-5.847A0.767,0.767,0,1,0,131.585,223.247Zm-19,7.189-8.68,5.012a0.767,0.767,0,1,0,.767,1.328l8.68-5.012A0.767,0.767,0,1,0,112.588,230.436Zm7.572-16.392a0.794,0.794,0,0,0-.959.553l-2.621,9.389-4.911-1.262a0.8,0.8,0,0,0-.959.554,0.756,0.756,0,0,0,.542.939l5.662,1.455a0.8,0.8,0,0,0,.959-0.554l2.829-10.135A0.755,0.755,0,0,0,120.16,214.044Z" transform="translate(-96.281)"/>
  <path id="guarantee" class="cls-1" d="M1206.39,298.213l-21.71-12.534-20,34.641,27.11,15.652,17.01-29.466Zm-1.12,2.24,1.34,4.625-3.01-1.739Zm-14.15,33.206-24.1-13.913,18.33-31.754,18.83,10.869-2.92,5.052,5.27,3.044-15.41,26.7h0Zm0.81-10.111-4.51-2.609a0.835,0.835,0,1,0-.84,1.442l4.52,2.608A0.832,0.832,0,1,0,1191.93,323.548Zm7.09-12.27-16.57-9.565a0.834,0.834,0,1,0-.83,1.444l16.56,9.564A0.835,0.835,0,1,0,1199.02,311.278Zm-2.5,4.33-16.57-9.565a0.834,0.834,0,1,0-.83,1.445l16.56,9.564A0.836,0.836,0,1,0,1196.52,315.608Zm-3.29-13.443-8.28-4.782a0.834,0.834,0,1,0-.83,1.444l8.28,4.782A0.834,0.834,0,1,0,1193.23,302.165Zm-12.77,9.947a4.264,4.264,0,0,0-5.85,1.436,4.121,4.121,0,0,0-.16,3.755l-2.08,3.609,2.68,0.582,1.84,2.027,2.08-3.609a4.091,4.091,0,0,0,3.17-2.016A4.253,4.253,0,0,0,1180.46,312.112Zm-3.92,8.536-0.23-.248-0.39-.427-0.56-.123-0.33-.071,0.56-.957a4.184,4.184,0,0,0,.71.507,4.657,4.657,0,0,0,.79.362Zm0.59-2.761a2.5,2.5,0,1,1,3.51-.861A2.556,2.556,0,0,1,1177.13,317.887Zm37.19-3.548a3.479,3.479,0,0,0-6.02-3.478l-11.25,19.485,0.93,0.54-2.74,2.587,1.9,3.663,4.13-.184,0.87-3.667,0.93,0.54ZM1198.14,335.4l-0.79-1.533,2.2-2.079,1.02,0.591-0.7,2.945Zm4.26-3.891-3.01-1.739,10.41-18.041a1.739,1.739,0,0,1,3.01,1.738ZM1178.8,315a0.836,0.836,0,1,0,.33,1.158A0.851,0.851,0,0,0,1178.8,315Z" transform="translate(-96.281)"/>
  <path id="time" class="cls-1" d="M1098.27,143.211l-5.79,3.341a0.785,0.785,0,0,0-.29,1.062l3.3,5.715a0.784,0.784,0,0,0,1.07.278l5.78-3.341a0.767,0.767,0,0,0,.29-1.061l-3.3-5.716A0.773,0.773,0,0,0,1098.27,143.211Zm2.62,6.107-4.43,2.558-2.53-4.376,4.44-2.558Zm6.06-11.119-5.79,3.341a0.786,0.786,0,0,0-.29,1.062l3.3,5.716a0.785,0.785,0,0,0,1.07.278l5.78-3.341a0.78,0.78,0,0,0,.3-1.062l-3.3-5.715A0.785,0.785,0,0,0,1106.95,138.2Zm2.62,6.108-4.43,2.558-2.53-4.377,4.44-2.558,2.52,4.377h0Zm-6.35,7.478-5.79,3.341a0.785,0.785,0,0,0-.29,1.061l3.3,5.716a0.784,0.784,0,0,0,1.07.278l5.78-3.341a0.779,0.779,0,0,0,.3-1.061l-3.31-5.716A0.772,0.772,0,0,0,1103.22,151.785Zm2.62,6.107-4.43,2.558-2.53-4.376,4.44-2.558Zm17.52-22.908-7.27-12.6a0.784,0.784,0,0,0-1.07-.278l-2.94,1.7-2.09-3.617a0.773,0.773,0,0,0-1.06-.278l-2.89,1.671a0.779,0.779,0,0,0-.3,1.061l2.09,3.617-6.6,3.811-2.09-3.617a0.772,0.772,0,0,0-1.06-.278l-2.9,1.67a0.786,0.786,0,0,0-.29,1.062l2.09,3.617-6.6,3.811-2.09-3.617a0.773,0.773,0,0,0-1.06-.279l-2.9,1.671a0.785,0.785,0,0,0-.29,1.061l2.09,3.617-2.94,1.7a0.785,0.785,0,0,0-.29,1.061l14.85,25.722a0.784,0.784,0,0,0,1.07.278l18.27-10.552a13.916,13.916,0,0,0,7.98,4.856,14.187,14.187,0,0,0,15.3-20.792A14.041,14.041,0,0,0,1123.36,134.984Zm-13.78-8.839-2.09-3.617,1.53-.888,2.09,3.617,2.09,3.617-1.54.888Zm-10.86,6.264-2.08-3.617,1.53-.887,2.09,3.617,2.09,3.617-1.54.887Zm-10.85,6.265-2.08-3.617,1.53-.888,2.09,3.618,2.09,3.616-1.54.888Zm24.03,8.1-5.79,3.341a0.785,0.785,0,0,0-.29,1.061l3.3,5.717a0.785,0.785,0,0,0,1.07.278l5.15-2.974c0.16,0.342.33,0.679,0.52,1.008,0.11,0.178.21,0.353,0.33,0.527l-17.47,10.083-14.08-24.382,2.26-1.3,2.09,3.617a0.784,0.784,0,0,0,1.07.278l2.89-1.67a0.769,0.769,0,0,0,.29-1.062l-2.09-3.617,6.61-3.811,2.08,3.617a0.785,0.785,0,0,0,1.07.279l2.89-1.671a0.767,0.767,0,0,0,.29-1.061l-2.08-3.617,6.6-3.811,2.08,3.617a0.785,0.785,0,0,0,1.07.278l2.89-1.67a0.769,0.769,0,0,0,.29-1.062l-2.08-3.617,2.26-1.305,6.79,11.77c-0.26.132-.53,0.272-0.78,0.42a14.069,14.069,0,0,0-2.1,1.477l-2.33-4.04a0.785,0.785,0,0,0-1.07-.279l-5.79,3.342a0.785,0.785,0,0,0-.29,1.061l3.3,5.716a0.785,0.785,0,0,0,1.07.278l1.16-.674a14.379,14.379,0,0,0-1.06,4.762q-0.015.609,0,1.214l-1.05-1.835A0.785,0.785,0,0,0,1111.9,146.773Zm0.1,1.731,2.52,4.377-4.43,2.558-2.52-4.377Zm3.73-13.585,2.13,3.695a14.762,14.762,0,0,0-1.37,1.7l-2.67,1.543-2.52-4.376Zm18.6,23.973a12.483,12.483,0,0,1-16.39-3.369v0a12.666,12.666,0,0,1-.72-1.1,12.338,12.338,0,0,1,.47-13.106h0a12.482,12.482,0,0,1,1.68-2.033h0a12.981,12.981,0,0,1,2.53-1.912,13.622,13.622,0,0,1,1.41-.7h0A12.42,12.42,0,0,1,1134.33,158.892Zm1.29-19.5a0.783,0.783,0,0,0-1.02,1.188,9.564,9.564,0,0,1,2.15,2.57,0.785,0.785,0,0,0,1.36-.783A11.247,11.247,0,0,0,1135.62,139.387Zm-2.52-1.609a11.6,11.6,0,0,0-7.75-.714,0.779,0.779,0,0,0-.57.946,0.763,0.763,0,0,0,.94.556,10.024,10.024,0,0,1,6.7.618,0.8,0.8,0,0,0,.73-0.033,0.788,0.788,0,0,0,.31-0.342A0.761,0.761,0,0,0,1133.1,137.778Zm-9.37,2.762a8.766,8.766,0,1,0,12.07,3.154A8.841,8.841,0,0,0,1123.73,140.54Zm7.99,13.841a7.216,7.216,0,1,1,2.72-9.9A7.266,7.266,0,0,1,1131.72,154.381Zm0.27-8.728-3.3,1.906-1.88-3.26a0.785,0.785,0,0,0-1.36.783l2.27,3.93a0.782,0.782,0,0,0,1.07.278l3.97-2.3A0.773,0.773,0,1,0,1131.99,145.653Z" transform="translate(-96.281)"/>
  <path id="car" class="cls-1" d="M441.083,75.835a0.838,0.838,0,0,0,.945-0.7l0.912-6.177a3.471,3.471,0,0,1,2.783-2.836l11.27-3.02a6.2,6.2,0,0,1,5.754,1.534l6.5,5.037a3.822,3.822,0,0,0,3.607,1.135l2.415-.647c3.454-.926,5.331.6,6.212,1.751l-1.333.357a0.825,0.825,0,1,0,.427,1.594l1.731-.464,1.742,3.859a0.564,0.564,0,0,1,.078.509,0.948,0.948,0,0,1-.66.445l-2.479.665a5.775,5.775,0,1,0,.427,1.594L483.9,79.8a2.542,2.542,0,0,0,1.769-1.406,2.115,2.115,0,0,0-.129-1.891l-2.008-4.457c-1.233-2.478-4.16-4.7-8.683-3.484l-2.415.647a2.231,2.231,0,0,1-1.985-.7,0.728,0.728,0,0,0-.114-0.107l-6.512-5.043a7.915,7.915,0,0,0-7.252-1.858l-11.27,3.02a5.128,5.128,0,0,0-4,4.15L440.38,74.9A0.821,0.821,0,0,0,441.083,75.835ZM476.7,85.149a4.125,4.125,0,1,1,2.957-5.062A4.151,4.151,0,0,1,476.7,85.149Zm10.521,0.6L474.34,89.2a0.825,0.825,0,1,0,.427,1.594l12.88-3.452A0.825,0.825,0,1,0,487.22,85.746Zm-46.79,5.705,0.415-.112a0.825,0.825,0,1,0-.427-1.594L440,89.858a0.83,0.83,0,0,1-1.018-.581l-1.068-3.984,0.805-.216a0.825,0.825,0,1,0-.427-1.594l-0.805.216-0.64-2.39a0.83,0.83,0,0,1,.591-1.013l15.441-4.137,3.444,6.931a0.832,0.832,0,0,0,.96.429,0.867,0.867,0,0,0,.155-0.058,0.825,0.825,0,0,0,.38-1.107l-3.3-6.635,13.5-3.618a0.825,0.825,0,1,0-.427-1.594l-2.722.73,0.483-2.31a0.821,0.821,0,0,0-.647-0.972,0.836,0.836,0,0,0-.984.646l-0.652,3.118-9.156,2.453L452,67a0.833,0.833,0,0,0-1.61.431L452.31,74.6l-15.3,4.1a2.492,2.492,0,0,0-1.775,3.038l2.135,7.968A2.492,2.492,0,0,0,440.43,91.451Zm27.956-8.345a0.829,0.829,0,0,0-1.019-.581l-13.743,3.682a5.774,5.774,0,1,0,.427,1.594l13.743-3.683A0.829,0.829,0,0,0,468.386,83.107Zm-19.052,9.375a4.125,4.125,0,1,1,2.958-5.062A4.15,4.15,0,0,1,449.334,92.481Zm25.657-13.707a2.475,2.475,0,1,0,3.055,1.743A2.491,2.491,0,0,0,474.991,78.775Zm0.854,3.187a0.825,0.825,0,1,1,.591-1.012A0.831,0.831,0,0,1,475.845,81.962ZM457.994,76.5a0.825,0.825,0,1,0,.427,1.593l0.805-.216a0.825,0.825,0,1,0-.427-1.593l-0.8.215h0Zm6.685,15.289-8.05,2.157a0.825,0.825,0,1,0,.427,1.593l8.05-2.157A0.825,0.825,0,1,0,464.679,91.786Zm-17.053-5.679a2.475,2.475,0,1,0,3.056,1.743A2.491,2.491,0,0,0,447.626,86.107Zm0.854,3.187a0.825,0.825,0,1,1,.592-1.012A0.831,0.831,0,0,1,448.48,89.294Zm3.319,5.943-11.271,3.02a0.825,0.825,0,1,0,.427,1.594l11.271-3.02A0.825,0.825,0,1,0,451.8,95.237ZM471.12,90.06l-1.611.431a0.825,0.825,0,1,0,.427,1.594l1.611-.431A0.825,0.825,0,1,0,471.12,90.06Z" transform="translate(-96.281)"/>
  <path id="volkswagen" class="cls-1" d="M725.25,374.014a22.5,22.5,0,1,0,30.736,8.236,22.5,22.5,0,0,0-30.736-8.236h0Zm21.491,37.224a20.482,20.482,0,1,1,7.5-27.98,20.482,20.482,0,0,1-7.5,27.98h0Zm-21.776-28.749a16.044,16.044,0,0,1,7.762-4.483h0l1.085,10.838-8.847-6.355h0Zm12.219-4.919a16.034,16.034,0,0,1,5.767,1.35h0l1.768,17.766-5.611-4.045-4.656,2.688,0.7,6.881-14.5-10.432h0a16.005,16.005,0,0,1,1.712-5.65h0l11.6,8.344,4.671-2.7-1.445-14.2h0ZM721.1,397.628a15.967,15.967,0,0,0,16.375,11.788h0L721.1,397.628h0Zm19.246,11.349a16.068,16.068,0,0,0,7.635-4.407h0l-8.706-6.27,1.071,10.677h0ZM749.8,402.3a15.974,15.974,0,0,0-2-20.05h0l2,20.05h0Z" transform="translate(-96.281)"/>
  <path id="bosch" class="cls-1" d="M782.922,10.84a22.525,22.525,0,0,1-30.679,8.141,22.52,22.52,0,0,1-8.287-30.637,22.57,22.57,0,0,1,30.787-8.334,22.574,22.574,0,0,1,8.179,30.83L780.6,9.5a19.861,19.861,0,0,0-7.188-27.186A19.915,19.915,0,0,0,746.08-10.43a19.867,19.867,0,0,0,7.494,27.106A19.814,19.814,0,0,0,780.6,9.5l2.321,1.34h0Zm-6.46-12.428L774.91,1.1,758.518-8.365,754.085-.686l-2.124-1.226,5.985-10.366,1.412-2a3.016,3.016,0,0,1-1.019.436c-5.083,1.672-8.876,6.9-9.385,12.246,0.053,0.794.161,2.39,0.13,2.887a5.783,5.783,0,0,1,.3,1.707l0.582-1.452,2-3.455L768.353,7.55l-1.218,2.11L752.867,1.423l-3.88,6.72a17.612,17.612,0,0,1-1.2-15.286,17.252,17.252,0,0,1,15.946-10.246l-3.989,6.91,14.268,8.238L778-9.152A18.152,18.152,0,0,1,778.758,6.9c-3.129,5.873-8.629,9.608-15.5,9.477L772.786-.128,774.91,1.1l-6.428,11.135-0.861,1.036c0.111-.191.914-0.242,1.331-0.511a9.126,9.126,0,0,0,2.565-1.331,14.141,14.141,0,0,0,6.1-14.139c0.033-.49-0.359-0.717-0.137-1.1l-1.023,2.227h0Z" transform="translate(-96.281)"/>
  <path id="people" class="cls-1" d="M228.609,398.571h0.065v-4.838a18.042,18.042,0,0,0-.872-5.157l-2.629-6.134h-4.288l-2.654,6.2a17.959,17.959,0,0,0-.847,5.093v1.613h-2.419a2.422,2.422,0,0,1-2.42-2.419v-3.359A12.9,12.9,0,0,0,219,378.41V378.3a3.222,3.222,0,0,0,2.419-3.111,4.5,4.5,0,0,0-.852-2.764,2.5,2.5,0,0,0,.046-0.462v-1.613a14.517,14.517,0,0,0-29.033,0v1.613a2.5,2.5,0,0,0,.046.462,4.5,4.5,0,0,0-.852,2.764,3.222,3.222,0,0,0,2.419,3.111v0.115a12.9,12.9,0,0,0,6.452,11.157v3.359a2.422,2.422,0,0,1-2.419,2.419H193.19v-1.136a5.131,5.131,0,0,0-1.435-9.328l-0.984-.222v4.235h-1.613v-4.237l-0.986.224a5.131,5.131,0,0,0-1.433,9.328v2.028a9.683,9.683,0,0,0-5.645,8.786v0.806h1.612v-0.806A8.076,8.076,0,0,1,189.965,397v8.83h1.612v-8.871H194v8.871h1.613v-8.871h1.613a3.977,3.977,0,0,0,.95-0.125,8.058,8.058,0,0,0,15.842,0,3.963,3.963,0,0,0,.95.125h1.612v8.871h1.613v-8.871h2.42v8.871h1.613V397a8.077,8.077,0,0,1,7.258,8.024v0.806h1.613v-0.806A9.631,9.631,0,0,0,228.609,398.571Zm-36.584-5.561-0.448.222v2.113h-0.806a9.621,9.621,0,0,0-2.42.319v-2.432l-0.447-.222a3.553,3.553,0,0,1-.359-6.161v3.658h4.839v-3.659A3.554,3.554,0,0,1,192.025,393.01ZM219,374.492a4.971,4.971,0,0,0,.614-0.467,3.407,3.407,0,0,1,.192,1.159,1.607,1.607,0,0,1-.806,1.389v-2.081Zm-13.71-17.009v5.6H206.9v-5.6a12.9,12.9,0,0,1,12.075,12.438c-2.87-1.529-8.894-2-12.881-2s-10.012.466-12.882,2A12.9,12.9,0,0,1,205.287,357.483Zm-12.1,19.089a1.6,1.6,0,0,1-.806-1.388,3.382,3.382,0,0,1,.193-1.16,4.77,4.77,0,0,0,.613.467v2.081Zm0-4.611c0.158-.823,4.849-2.422,12.9-2.422s12.75,1.6,12.9,2.419c0,1.586-4.827,3.226-12.9,3.226S193.2,373.545,193.191,371.961Zm1.612,6.449v-3.117c3.556,1.355,9.066,1.5,11.291,1.5s7.734-.149,11.29-1.5v3.117A11.291,11.291,0,0,1,194.8,378.41ZM206.094,401.8a6.457,6.457,0,0,1-6.405-5.705,4.01,4.01,0,0,0,1.566-3.166v-2.563a12.8,12.8,0,0,0,9.677,0v2.563a4.01,4.01,0,0,0,1.566,3.166A6.457,6.457,0,0,1,206.094,401.8Zm15.145-6.451H219v-1.613a16.415,16.415,0,0,1,.741-4.521l2.21-5.157h0.275v7.406A2.4,2.4,0,0,0,221.239,395.346Zm1.79-.807a0.807,0.807,0,1,1,.807-0.806A0.807,0.807,0,0,1,223.029,394.539Zm4.032,2.639a9.67,9.67,0,0,0-2.763-1.395,2.4,2.4,0,0,0-.462-4.322v-7.406h0.275l2.185,5.093a16.6,16.6,0,0,1,.765,4.585v3.445h0ZM206.9,379.216h7.258V377.6h-8.871v8.065H206.9v-6.452Zm-11.29-12.9h1.613v1.613H195.61v-1.613Zm3.225-.807h1.613v1.614h-1.613v-1.614Z" transform="translate(-96.281)"/>
</svg>
