<svg xmlns="http://www.w3.org/2000/svg" width="80" height="86" viewBox="0 0 80 86">
  <defs>
    <style>
      .cls-1 {
        fill: #fff;
        fill-rule: evenodd;
      }
    </style>
  </defs>
  <path id="sale-item.svg" class="cls-1" d="M694.313,154.768H675.985a12.306,12.306,0,0,0,4.24-9.255,12.761,12.761,0,0,0-12.96-12.52,13.048,13.048,0,0,0-11.27,6.35,13.049,13.049,0,0,0-11.27-6.35,12.761,12.761,0,0,0-12.961,12.521,12.305,12.305,0,0,0,4.24,9.254H617.677a1.663,1.663,0,0,0-1.691,1.633v17.421a1.663,1.663,0,0,0,1.691,1.633h2.817v41.917a1.663,1.663,0,0,0,1.691,1.633h67.62a1.663,1.663,0,0,0,1.69-1.633V182.531a1.692,1.692,0,0,0-3.381,0v33.207H664.447V182.531a1.692,1.692,0,0,0-3.381,0v33.207H650.923V175.455h43.39a1.663,1.663,0,0,0,1.69-1.634V156.4A1.663,1.663,0,0,0,694.313,154.768Zm-36.628-9.254a9.585,9.585,0,1,1,9.58,9.254h-9.58v-9.254Zm-10.143,70.224H623.875V175.455h23.667v40.283Zm0-43.55H619.367V158.035h28.175v14.153Zm-2.817-17.42a9.26,9.26,0,1,1,9.579-9.255v9.255h-9.579Zm16.341,17.42H650.923V158.035h10.143v14.153Zm31.556,0H664.447V158.035h28.175v14.153Zm-47.9-32.663a5.992,5.992,0,1,0,0,11.977h4.508a1.662,1.662,0,0,0,1.69-1.633v-4.355A6.1,6.1,0,0,0,644.725,139.525Zm2.817,8.711h-2.817a2.724,2.724,0,1,1,2.817-2.723v2.723h0Zm25.921-2.722a6.2,6.2,0,0,0-12.4,0v4.355a1.663,1.663,0,0,0,1.691,1.633h4.508A6.1,6.1,0,0,0,673.463,145.514Zm-9.016,0a2.819,2.819,0,1,1,2.818,2.722h-2.818v-2.722Z" transform="translate(-616 -133)"/>
</svg>
