<svg id="icon-service.svg" xmlns="http://www.w3.org/2000/svg" width="86" height="68.875" viewBox="0 0 86 68.875">
  <defs>
    <style>
      .cls-1 {
        fill: #fff;
        fill-rule: evenodd;
      }
    </style>
  </defs>
  <path id="services" class="cls-1" d="M684.2,169.793l8.151,2.713a1.759,1.759,0,0,0,.56.09,1.656,1.656,0,0,0,1.56-1.017l1.971-5.084a1.439,1.439,0,0,0-.061-1.175,1.624,1.624,0,0,0-.939-0.79l-8.151-2.712a1.694,1.694,0,0,0-2.121.926l-1.97,5.084a1.429,1.429,0,0,0,.061,1.174A1.616,1.616,0,0,0,684.2,169.793Zm3.53-4.564,5.03,1.674-0.849,2.192-5.03-1.674Zm-40.471,41.737a1.616,1.616,0,1,1-1.738,1.611A1.679,1.679,0,0,1,647.259,206.966Zm36.366-23.92,0.462-.427a23.7,23.7,0,0,1,7.553-4.705l10.867-4.236s2.951-1.179,3.61-1.526a13,13,0,0,0,3.29-20.217,1.729,1.729,0,0,0-1.546-.492,1.63,1.63,0,0,0-1.251.974l-3.959,9.886L699.7,161.29l4.165-10.5a1.45,1.45,0,0,0-.266-1.5,1.727,1.727,0,0,0-1.521-.556,14.1,14.1,0,0,0-11.768,9.332l-6.839-2.346a1.773,1.773,0,0,0-1.395.1,1.545,1.545,0,0,0-.811,1.056l-1.574,7.894a21.142,21.142,0,0,1-5.019,9.967l-14.555-13.488,1.035-.959a1.459,1.459,0,0,0,0-2.173l-1.094-1.014a10.962,10.962,0,0,1,10.7-3.41,1.711,1.711,0,0,0,1.741-.712,1.447,1.447,0,0,0-.128-1.76,14.738,14.738,0,0,0-5.412-3.9,16.076,16.076,0,0,0-15.585,1.735l-0.9-.839a1.75,1.75,0,0,0-2.345,0l-10.067,9.331a1.457,1.457,0,0,0-.012,2.161c0.574,0.542.3,1.737-.581,2.556s-2.173,1.071-2.759.539a1.754,1.754,0,0,0-2.333.01l-4.9,4.542a1.457,1.457,0,0,0,0,2.173l10.682,9.9a1.753,1.753,0,0,0,2.345,0l4.9-4.541a1.458,1.458,0,0,0,.016-2.157c-0.57-.544-0.3-1.736.585-2.553s2.169-1.07,2.756-.542a1.751,1.751,0,0,0,2.327-.016l0.916-.848,14.633,13.561-24.042,22.279a5.525,5.525,0,0,0,0,8.231,6.647,6.647,0,0,0,8.881,0l24.041-22.28L701.335,214.5a1.751,1.751,0,0,0,2.344,0l5.774-5.351a1.458,1.458,0,0,0,0-2.172Zm16.008-30.507-3.047,7.684-3.161-1.085A10.525,10.525,0,0,1,699.633,152.539Zm-34.062-2.419c0.266,0.114.526,0.235,0.78,0.365a13.684,13.684,0,0,0-8.651,4.444l-3.965-3.674A12.55,12.55,0,0,1,665.571,150.12Zm-16.279,1.363,8.338,7.727-7.546,6.992-8.337-7.726Zm-9.97,24.693-8.337-7.727,2.554-2.368,8.338,7.727Zm4.33-8.165a6.108,6.108,0,0,0-1.365,1.831l-4.459-4.132a6.61,6.61,0,0,0,1.975-1.265,6.042,6.042,0,0,0,1.472-2.06l4.6,4.263A6.576,6.576,0,0,0,643.652,168.011Zm10.687-1.406,3.428-3.177L672.4,176.989l-3.429,3.177Zm-5.217,44.07a3.127,3.127,0,0,1-4.191,0,2.609,2.609,0,0,1,0-3.883L675.5,178.465a24.349,24.349,0,0,0,7.449-13.13l1.216-6.1,18.89,6.481a1.7,1.7,0,0,0,2.13-.907l3.411-8.515a9.737,9.737,0,0,1-2.146,11.73,9.324,9.324,0,0,1-1.966,1.451c-0.385.2-3.472,1.45-3.472,1.45l-10.656,4.153a27.063,27.063,0,0,0-8.612,5.364Zm53.385,0.569L677.853,188.4l3.427-3.177,24.656,22.848Z" transform="translate(-627 -146.063)"/>
</svg>
