<svg id="iconServ2.svg" xmlns="http://www.w3.org/2000/svg" width="85.875" height="85.81" viewBox="0 0 85.875 85.81">
  <defs>
    <style>
      .cls-1 {
        fill: #fff;
        fill-rule: evenodd;
      }
    </style>
  </defs>
  <path id="Фигура_1" data-name="Фигура 1" class="cls-1" d="M637.454,1232.28a5.7,5.7,0,1,0,5.7,5.7A5.709,5.709,0,0,0,637.454,1232.28Zm0,8.05a2.35,2.35,0,1,1,2.347-2.35A2.355,2.355,0,0,1,637.454,1240.33Z" transform="translate(-623.875 -1224.41)"/>
  <path id="Фигура_5" data-name="Фигура 5" class="cls-1" d="M639.224,1269.49l-0.049-.12a1.677,1.677,0,0,0-3.109,1.26l0.048,0.12a1.683,1.683,0,0,0,1.556,1.05,1.561,1.561,0,0,0,.628-0.13A1.671,1.671,0,0,0,639.224,1269.49Zm30.255-29.99-22.769-11.45a13.573,13.573,0,0,0-21.43,15.94c0,0.01,0,.01,0,0.01l8.189,20.22a1.683,1.683,0,0,0,1.555,1.05,1.745,1.745,0,0,0,.629-0.12,1.685,1.685,0,0,0,.925-2.19l-5.2-12.84a13.573,13.573,0,0,0,18.937-16.5l17.657,8.88A1.679,1.679,0,1,0,669.479,1239.5Zm-32.025,8.71a10.23,10.23,0,1,1,10.229-10.23A10.242,10.242,0,0,1,637.454,1248.21Zm68.359,9.57c-0.027-.01-0.053-0.03-0.081-0.04l-22.519-11.33a1.679,1.679,0,0,0-1.508,3l16.953,8.52a7.369,7.369,0,0,0,3.284,13.73l-13.394,18.27c0.033-.49.052-0.99,0.052-1.49a21.8,21.8,0,0,0-43.26-3.85l-3.631-8.96a1.677,1.677,0,1,0-3.108,1.26l8.062,19.91c0.009,0.02.022,0.04,0.032,0.06a21.791,21.791,0,0,0,37.083,5.23s0,0,.006.01l0.106-.15q0.519-.645.988-1.35l23.19-31.62a6.105,6.105,0,0,0,.476-0.65,1.07,1.07,0,0,0,.1-0.16,7.31,7.31,0,0,0,1.1-3.87A7.389,7.389,0,0,0,705.813,1257.78Zm-23.675,40.89-0.93,1.27A18.424,18.424,0,1,1,682.138,1298.67Zm23.656-32.26-0.373.51a4.019,4.019,0,1,1,.972-2.62A3.968,3.968,0,0,1,705.794,1266.41Zm-29.6-23.53-0.022-.01a1.678,1.678,0,0,0-1.5,3l0.022,0.01A1.678,1.678,0,0,0,676.192,1242.88Zm-9.392,40.25a5.31,5.31,0,1,0,5.31,5.31A5.316,5.316,0,0,0,666.8,1283.13Zm0,7.26a1.955,1.955,0,1,1,1.956-1.95A1.953,1.953,0,0,1,666.8,1290.39Zm13.485-5.52-1.536-.38-0.67-1.62,0.827-1.37a1.682,1.682,0,0,0-.248-2.05l-2.8-2.82a1.684,1.684,0,0,0-2.054-.25l-1.386.83-1.616-.67-0.393-1.58a1.685,1.685,0,0,0-1.628-1.27h-3.964a1.683,1.683,0,0,0-1.627,1.27l-0.393,1.58-1.616.67-1.387-.83a1.683,1.683,0,0,0-2.053.25l-2.8,2.82a1.683,1.683,0,0,0-.248,2.05l0.827,1.37-0.67,1.62-1.536.38a1.68,1.68,0,0,0-1.272,1.63l0.015,3.99a1.677,1.677,0,0,0,1.271,1.62l1.522,0.38,0.67,1.61-0.795,1.33a1.671,1.671,0,0,0,.255,2.05l2.842,2.82a1.66,1.66,0,0,0,2.046.25l1.312-.79,1.616,0.67,0.369,1.48a1.672,1.672,0,0,0,1.627,1.27h4.014a1.674,1.674,0,0,0,1.628-1.27l0.368-1.48,1.616-.67,1.312,0.79a1.661,1.661,0,0,0,2.047-.25l2.842-2.82a1.671,1.671,0,0,0,.255-2.05l-0.8-1.33,0.67-1.61,1.522-.38a1.677,1.677,0,0,0,1.271-1.62l0.015-3.99A1.679,1.679,0,0,0,680.285,1284.87Zm-2.092,4.3-1.075.27a1.665,1.665,0,0,0-1.144.99l-1.317,3.17a1.686,1.686,0,0,0,.112,1.51l0.553,0.92-0.983.98-0.918-.56a1.7,1.7,0,0,0-1.506-.11l-3.178,1.32a1.677,1.677,0,0,0-.985,1.14l-0.256,1.03H666.1l-0.256-1.03a1.676,1.676,0,0,0-.986-1.14l-3.178-1.32a1.7,1.7,0,0,0-1.5.11l-0.918.56-0.984-.98,0.554-.92a1.686,1.686,0,0,0,.112-1.51l-1.317-3.17a1.667,1.667,0,0,0-1.144-.99l-1.075-.27,0-1.37,1.08-.26a1.691,1.691,0,0,0,1.144-.99l1.317-3.18a1.662,1.662,0,0,0-.112-1.5l-0.589-.98,0.952-.96,0.985,0.59a1.667,1.667,0,0,0,1.5.11l3.178-1.31a1.692,1.692,0,0,0,.986-1.15l0.281-1.13h1.343l0.281,1.13a1.693,1.693,0,0,0,.985,1.15l3.178,1.31a1.669,1.669,0,0,0,1.506-.11l0.984-.59,0.953,0.96-0.589.98a1.662,1.662,0,0,0-.112,1.5l1.317,3.18a1.689,1.689,0,0,0,1.144.99l1.08,0.26Z" transform="translate(-623.875 -1224.41)"/>
</svg>
