<svg id="blogItem.svg" xmlns="http://www.w3.org/2000/svg" width="74.969" height="72" viewBox="0 0 74.969 72">
  <defs>
    <style>
      .cls-1 {
        fill: #fff;
        fill-rule: evenodd;
      }
    </style>
  </defs>
  <path id="blog" class="cls-1" d="M650.251,176.188h41.118v2.325H650.251v-2.325Zm0,10.46h38.7v2.325h-38.7v-2.325Zm0,10.446h30.226v2.324H650.251v-2.324Zm9.667,10.46h2.42v2.324h-2.42v-2.324Zm-4.841,0h2.42v2.324h-2.42v-2.324Zm-4.826,0h2.42v2.324h-2.42v-2.324Zm0-55.743v18.581h16.928V151.811H650.251Zm14.508,16.256H652.671V154.135h12.088v13.932Zm52.143,10.1-3.424-3.288a3.743,3.743,0,0,0-5.136,0l-9.741,9.354v-21.3L680.979,146h-37.99v72h55.627V200.665l18.286-17.56A3.394,3.394,0,0,0,716.9,178.172Zm-35.215-28.2,12.8,12.288h-12.8V149.968ZM696.2,215.675H645.41V148.324h33.857V164.58H696.2v21.984l-17.179,16.5-2.14,10.261,10.685-2.055,8.634-8.291v12.7Zm-15.32-9.7,3.646,3.5-4.561.878Zm6.1,2.58-5.136-4.933,22.241-21.344,5.136,4.931Zm23.953-22.989-5.136-4.933L707.5,179l5.135,4.932Zm4.266-4.11-0.856.822L709.2,177.35l0.856-.822a1.248,1.248,0,0,1,1.712,0l3.424,3.288A1.133,1.133,0,0,1,715.19,181.461Zm-29.074,21.352,17.1-16.426,1.712,1.643-17.105,16.427Z" transform="translate(-643 -146)"/>
</svg>
