<svg xmlns="http://www.w3.org/2000/svg" width="45" height="45" viewBox="0 0 45 45">
  <defs>
    <style>
      .cls-1 {
        fill: #2d303a;
        fill-rule: evenodd;
      }
    </style>
  </defs>
  <path id="bosch.svg" class="cls-1" d="M772.99,1244.61a22.5,22.5,0,1,1-22.5-22.61,22.527,22.527,0,0,1,22.5,22.61h-2.679a19.932,19.932,0,1,0-19.819,19.73,19.865,19.865,0,0,0,19.819-19.73h2.679Zm-11.809-7.53v3.1H742.253v8.87H739.8v-11.97l0.221-2.44a3.022,3.022,0,0,1-.665.88c-3.565,3.99-4.234,10.42-2,15.3,0.443,0.66,1.335,1.99,1.556,2.44a5.736,5.736,0,0,1,1.113,1.32l-0.221-1.54v-3.99h18.927v2.43H742.253v7.76a17.609,17.609,0,0,1-8.687-12.64,17.246,17.246,0,0,1,8.687-16.84v7.98h16.475v-7.98a18.149,18.149,0,0,1,8.687,13.52c0.227,6.65-2.669,12.64-8.687,15.96v-19.06h2.453v12.86l-0.227,1.32c0-.22.67-0.66,0.9-1.1a9.254,9.254,0,0,0,1.556-2.44,14.148,14.148,0,0,0-1.783-15.3c-0.217-.44-0.67-0.44-0.67-0.88l0.227,2.44h0Z" transform="translate(-728 -1222)"/>
</svg>
