<svg xmlns="http://www.w3.org/2000/svg" width="50" height="33" viewBox="0 0 50 33">
  <defs>
    <style>
      .cls-1 {
        fill: #2d303a;
        fill-rule: evenodd;
      }
    </style>
  </defs>
  <path id="car.svg" class="cls-1" d="M159.2,1662.99a0.834,0.834,0,0,0,1.094-.43l2.48-5.73a3.467,3.467,0,0,1,3.422-2.02h11.668a6.21,6.21,0,0,1,5.161,2.97l4.977,6.55a3.827,3.827,0,0,0,3.189,2.03h2.5c3.576,0,5,1.96,5.547,3.3h-1.38a0.825,0.825,0,1,0,0,1.65h1.792l0.684,4.18a0.562,0.562,0,0,1-.056.51,0.969,0.969,0,0,1-.753.26h-2.567a5.775,5.775,0,1,0,0,1.65h2.567a2.545,2.545,0,0,0,2.073-.9,2.114,2.114,0,0,0,.365-1.86l-0.787-4.83c-0.549-2.71-2.8-5.61-7.485-5.61h-2.5a2.224,2.224,0,0,1-1.737-1.19,0.61,0.61,0,0,0-.082-0.13l-4.986-6.56a7.908,7.908,0,0,0-6.523-3.67H166.2a5.129,5.129,0,0,0-4.933,2.98l-2.5,5.77A0.818,0.818,0,0,0,159.2,1662.99Zm31.991,18.22a4.125,4.125,0,1,1,4.168-4.13A4.152,4.152,0,0,1,191.191,1681.21Zm10.009,3.3H187.865a0.825,0.825,0,1,0,0,1.65H201.2A0.825,0.825,0,1,0,201.2,1684.51Zm-46.673-6.6h0.43a0.825,0.825,0,1,0,0-1.65h-0.43a0.831,0.831,0,0,1-.833-0.83v-4.12h0.833a0.825,0.825,0,1,0,0-1.65h-0.833v-2.48a0.829,0.829,0,0,1,.833-0.82h15.986l1.533,7.59a0.83,0.83,0,0,0,.816.66,0.929,0.929,0,0,0,.165-0.02,0.822,0.822,0,0,0,.653-0.97l-1.467-7.26h13.978a0.825,0.825,0,1,0,0-1.65h-2.819l1.064-2.11a0.814,0.814,0,0,0-.373-1.1,0.83,0.83,0,0,0-1.118.37l-1.436,2.84H172.03v-7.42a0.834,0.834,0,0,0-1.667,0v7.42H154.527a2.49,2.49,0,0,0-2.5,2.47v8.25A2.492,2.492,0,0,0,154.527,1677.91Zm29.163-.83a0.828,0.828,0,0,0-.833-0.82H168.629a5.775,5.775,0,1,0,0,1.65h14.228A0.83,0.83,0,0,0,183.69,1677.08Zm-20.828,4.13a4.125,4.125,0,1,1,4.167-4.13A4.151,4.151,0,0,1,162.862,1681.21Zm28.329-6.6a2.475,2.475,0,1,0,2.5,2.47A2.49,2.49,0,0,0,191.191,1674.61Zm0,3.3a0.825,0.825,0,1,1,.834-0.83A0.831,0.831,0,0,1,191.191,1677.91Zm-15.828-9.9a0.825,0.825,0,1,0,0,1.65H176.2a0.825,0.825,0,1,0,0-1.65h-0.834Zm2.5,16.5h-8.335a0.825,0.825,0,1,0,0,1.65h8.335A0.825,0.825,0,1,0,177.864,1684.51Zm-15-9.9a2.475,2.475,0,1,0,2.5,2.47A2.489,2.489,0,0,0,162.862,1674.61Zm0,3.3a0.825,0.825,0,1,1,.833-0.83A0.832,0.832,0,0,1,162.862,1677.91Zm1.667,6.6H152.861a0.825,0.825,0,1,0,0,1.65h11.668A0.825,0.825,0,1,0,164.529,1684.51Zm20,0h-1.667a0.825,0.825,0,1,0,0,1.65h1.667A0.825,0.825,0,1,0,184.531,1684.51Z" transform="translate(-152.031 -1653.16)"/>
</svg>
