<svg xmlns="http://www.w3.org/2000/svg" width="50" height="31" viewBox="0 0 50 31">
  <defs>
    <style>
      .cls-1 {
        fill: #2d303a;
        fill-rule: evenodd;
      }
    </style>
  </defs>
  <path id="delivery.svg" class="cls-1" d="M195.691,1369.64l-1.3-5.07a0.767,0.767,0,0,0,.62-0.75V1363a3.262,3.262,0,0,0-3.289-3.22h-5.9v-1.69a1.6,1.6,0,0,0-1.618-1.58h-30.07a1.6,1.6,0,0,0-1.619,1.58V1372a0.784,0.784,0,0,0,1.567,0v-13.91a0.057,0.057,0,0,1,.052-0.05h30.07a0.057,0.057,0,0,1,.052.05V1372a0.783,0.783,0,0,0,1.566,0v-0.87h9.242a2.554,2.554,0,0,1,2.433,1.74h-2.435a0.774,0.774,0,0,0-.783.77v1.63a2.434,2.434,0,0,0,2.454,2.41h0.887v3.37h-2.047a4.994,4.994,0,0,0-9.374,0h-0.377v-5.78a0.783,0.783,0,0,0-1.566,0v5.78H168.014a4.994,4.994,0,0,0-9.374,0h-4.5a0.049,0.049,0,0,1-.052-0.05v-1.69h3.393a0.765,0.765,0,1,0,0-1.53h-7.518a0.765,0.765,0,1,0,0,1.53h2.558V1381a1.6,1.6,0,0,0,1.619,1.58h4.23c0,0.02,0,.04,0,0.06a4.961,4.961,0,0,0,9.919,0c0-.02,0-0.04,0-0.06h17.648c0,0.02,0,.04,0,0.06a4.961,4.961,0,0,0,9.919,0c0-.02,0-0.04,0-0.06h2.559a0.771,0.771,0,0,0,.783-0.76v-8.18A4.082,4.082,0,0,0,195.691,1369.64Zm-9.864-8.32h5.9a1.7,1.7,0,0,1,1.723,1.68v0.05h-7.622v-1.73Zm0,8.28v-5.01h6.958l1.279,5.01h-8.237Zm-22.5,16.36a3.326,3.326,0,1,1,3.393-3.32A3.362,3.362,0,0,1,163.327,1385.96Zm27.564,0a3.326,3.326,0,1,1,3.393-3.32A3.361,3.361,0,0,1,190.891,1385.96Zm6.734-9.82h-0.887a0.88,0.88,0,0,1-.888-0.87v-0.87h1.775v1.74h0Zm-34.3,4.91a1.585,1.585,0,1,0,1.618,1.59A1.6,1.6,0,0,0,163.327,1381.05Zm27.564,0a1.585,1.585,0,1,0,1.618,1.59A1.6,1.6,0,0,0,190.891,1381.05Zm-9.188-3.27H170.009a0.765,0.765,0,1,0,0,1.53H181.7A0.765,0.765,0,1,0,181.7,1377.78Zm-20.047-3.27H151.633a0.765,0.765,0,1,0,0,1.53h10.023A0.765,0.765,0,1,0,161.656,1374.51Zm14.754-10.41a0.8,0.8,0,0,0-1.108,0l-6.964,6.82-3.622-3.55a0.8,0.8,0,0,0-1.108,0,0.752,0.752,0,0,0,0,1.08l4.177,4.09a0.781,0.781,0,0,0,1.107,0l7.518-7.36A0.752,0.752,0,0,0,176.41,1364.1Z" transform="translate(-149.188 -1356.5)"/>
</svg>
