<svg xmlns="http://www.w3.org/2000/svg" width="40" height="40" viewBox="0 0 40 40">
  <defs>
    <style>
      .cls-1 {
        fill: #2d303a;
        fill-rule: evenodd;
      }
    </style>
  </defs>
  <path id="guarantee.svg" class="cls-1" d="M757.068,1356H732v40h31.3v-34.02Zm0.149,2.5,3.477,3.33h-3.477v-3.33Zm4.348,35.83H733.739v-36.66h21.738v5.83h6.088v30.83h0Zm-4.348-9.16H752a0.831,0.831,0,1,0,0,1.66h5.217A0.831,0.831,0,1,0,757.217,1385.17Zm0-14.17h-19.13a0.836,0.836,0,1,0,0,1.67h19.13A0.836,0.836,0,1,0,757.217,1371Zm0,5h-19.13a0.836,0.836,0,1,0,0,1.67h19.13A0.836,0.836,0,1,0,757.217,1376Zm-9.565-10h-9.565a0.836,0.836,0,1,0,0,1.67h9.565A0.836,0.836,0,1,0,747.652,1366Zm-6.087,15a4.264,4.264,0,0,0-4.348,4.17,4.1,4.1,0,0,0,1.74,3.33v4.17l2.608-.84,2.609,0.84v-4.17a4.1,4.1,0,0,0,1.739-3.33A4.264,4.264,0,0,0,741.565,1381Zm0.869,9.35-0.319-.1-0.55-.17-0.55.17-0.319.1v-1.1a4.76,4.76,0,0,0,1.738,0v1.1Zm-0.869-2.68a2.5,2.5,0,1,1,2.609-2.5A2.564,2.564,0,0,1,741.565,1387.67ZM772,1366a3.482,3.482,0,0,0-6.957,0v22.5h1.079l-1.079,3.61,3.477,2.22,3.48-2.22-1.08-3.61H772V1366Zm-3.48,26.33-1.456-.93,0.866-2.9h1.181l0.866,2.9Zm1.74-5.5h-3.477V1366a1.74,1.74,0,0,1,3.477,0v20.83Zm-28.695-2.5a0.836,0.836,0,1,0,.869.84A0.857,0.857,0,0,0,741.565,1384.33Z" transform="translate(-732 -1356)"/>
</svg>
