<svg xmlns="http://www.w3.org/2000/svg" width="45" height="45" viewBox="0 0 45 45">
  <defs>
    <style>
      .cls-1 {
        fill: #2d303a;
        fill-rule: evenodd;
      }
    </style>
  </defs>
  <path id="map.svg" class="cls-1" d="M174.5,1511.5a5.25,5.25,0,1,0-5.25-5.25A5.259,5.259,0,0,0,174.5,1511.5Zm0-9a3.75,3.75,0,1,1-3.75,3.75A3.753,3.753,0,0,1,174.5,1502.5Zm-0.133,30.57,11.506-16.62c4.315-5.75,3.691-15.21-1.336-20.24a14.389,14.389,0,0,0-20.34,0c-5.027,5.03-5.651,14.49-1.353,20.22Zm-9.109-35.8a12.891,12.891,0,0,1,18.219,0c4.537,4.54,5.1,13.08,1.179,18.3l-10.289,14.86-10.306-14.88C160.161,1510.35,160.721,1501.81,165.258,1497.27Zm18.33,26.99a0.745,0.745,0,1,0-.176,1.48c7.887,0.93,12.088,3.44,12.088,4.88,0,2.04-7.989,4.88-21,4.88s-21-2.84-21-4.88c0-1.44,4.2-3.95,12.088-4.88a0.745,0.745,0,1,0-.176-1.48c-7.9.92-13.412,3.54-13.412,6.36,0,3.17,7.729,6.38,22.5,6.38s22.5-3.21,22.5-6.38C197,1527.8,191.484,1525.18,183.588,1524.26Z" transform="translate(-152 -1492)"/>
</svg>
