<svg xmlns="http://www.w3.org/2000/svg" width="50" height="50" viewBox="0 0 50 50">
  <defs>
    <style>
      .cls-1 {
        fill: #2d303a;
        fill-rule: evenodd;
      }
    </style>
  </defs>
  <path id="people.svg" class="cls-1" d="M769.89,1532.35h0.066v-4.83a18.087,18.087,0,0,0-.872-5.16l-2.629-6.14h-4.289l-2.653,6.2a18.012,18.012,0,0,0-.848,5.1v1.61h-2.419a2.426,2.426,0,0,1-2.42-2.42v-3.36a12.9,12.9,0,0,0,6.452-11.16v-0.11a3.22,3.22,0,0,0,2.419-3.11,4.53,4.53,0,0,0-.851-2.77,2.562,2.562,0,0,0,.045-0.46v-1.61a14.516,14.516,0,1,0-29.032,0v1.61a2.474,2.474,0,0,0,.045.46,4.522,4.522,0,0,0-.852,2.77,3.219,3.219,0,0,0,2.42,3.11v0.11a12.9,12.9,0,0,0,6.451,11.16v3.36a2.425,2.425,0,0,1-2.419,2.42h-4.033v-1.14a5.132,5.132,0,0,0-1.435-9.33l-0.984-.22v4.24h-1.613v-4.24l-0.985.22a5.133,5.133,0,0,0-1.434,9.33v2.03a9.681,9.681,0,0,0-5.645,8.79v0.8h1.613v-0.8a8.08,8.08,0,0,1,7.258-8.03v8.83h1.613v-8.87h2.419v8.87h1.613v-8.87H738.5a4.246,4.246,0,0,0,.95-0.12,8.06,8.06,0,0,0,15.842,0,4.239,4.239,0,0,0,.95.12h1.613v8.87h1.613v-8.87h2.419v8.87H763.5v-8.83a8.081,8.081,0,0,1,7.258,8.03v0.8h1.613v-0.8A9.656,9.656,0,0,0,769.89,1532.35Zm-36.584-5.56-0.447.23v2.11h-0.807a9.659,9.659,0,0,0-2.419.32v-2.43l-0.448-.23a3.383,3.383,0,0,1-1.972-3.31,3.419,3.419,0,0,1,1.613-2.85v3.66h4.839v-3.66A3.552,3.552,0,0,1,733.306,1526.79Zm26.972-18.51a6.067,6.067,0,0,0,.614-0.47,3.382,3.382,0,0,1,.193,1.16,1.618,1.618,0,0,1-.807,1.39v-2.08Zm-13.71-17.01v5.6h1.613v-5.6a12.9,12.9,0,0,1,12.075,12.43c-2.87-1.53-8.894-1.99-12.881-1.99s-10.011.46-12.882,1.99A12.9,12.9,0,0,1,746.568,1491.27Zm-12.1,19.09a1.616,1.616,0,0,1-.807-1.39,3.337,3.337,0,0,1,.193-1.16,4.769,4.769,0,0,0,.614.46v2.09Zm0-4.62c0.158-.82,4.849-2.42,12.9-2.42s12.751,1.6,12.9,2.42c0,1.59-4.826,3.23-12.9,3.23S734.476,1507.33,734.472,1505.74Zm1.612,6.45v-3.11c3.556,1.35,9.067,1.5,11.291,1.5s7.734-.15,11.29-1.5v3.11A11.291,11.291,0,0,1,736.084,1512.19Zm11.291,23.39a6.46,6.46,0,0,1-6.4-5.7,4.021,4.021,0,0,0,1.566-3.17v-2.56a12.8,12.8,0,0,0,9.677,0v2.56a4.022,4.022,0,0,0,1.567,3.17A6.46,6.46,0,0,1,747.375,1535.58Zm15.145-6.45h-2.242v-1.61a16.442,16.442,0,0,1,.741-4.53l2.21-5.15H763.5v7.4a2.434,2.434,0,0,0-1.613,2.28A2.4,2.4,0,0,0,762.52,1529.13Zm1.79-.81a0.805,0.805,0,1,1,.807-0.8A0.8,0.8,0,0,1,764.31,1528.32Zm4.033,2.64a9.6,9.6,0,0,0-2.764-1.39,2.41,2.41,0,0,0-.462-4.33v-7.4h0.275l2.185,5.09a16.571,16.571,0,0,1,.766,4.59v3.44h0ZM748.181,1513h7.258v-1.61h-8.871v8.06h1.613V1513Zm-11.29-12.9H738.5v1.61h-1.613v-1.61Zm3.226-.81h1.613v1.61h-1.613v-1.61Z" transform="translate(-722.375 -1489.63)"/>
</svg>
