<svg xmlns="http://www.w3.org/2000/svg" width="50" height="48" viewBox="0 0 50 48">
  <defs>
    <style>
      .cls-1 {
        fill: #2d303a;
        fill-rule: evenodd;
      }
    </style>
  </defs>
  <path id="time.svg" class="cls-1" d="M738.656,1666.32h-6.682a0.774,0.774,0,0,0-.783.77v6.6a0.773,0.773,0,0,0,.783.77h6.682a0.773,0.773,0,0,0,.783-0.77v-6.6A0.773,0.773,0,0,0,738.656,1666.32Zm-0.783,6.6h-5.116v-5.06h5.116v5.06Zm10.807-6.6H742a0.774,0.774,0,0,0-.783.77v6.6a0.774,0.774,0,0,0,.783.77h6.683a0.774,0.774,0,0,0,.783-0.77v-6.6A0.774,0.774,0,0,0,748.68,1666.32Zm-0.783,6.6H742.78v-5.06H747.9v5.06h0Zm-9.241,3.3h-6.682a0.774,0.774,0,0,0-.783.77v6.6a0.773,0.773,0,0,0,.783.77h6.682a0.773,0.773,0,0,0,.783-0.77v-6.6A0.773,0.773,0,0,0,738.656,1676.22Zm-0.783,6.6h-5.116v-5.06h5.116v5.06Zm26.625-11.08v-14.55a0.774,0.774,0,0,0-.783-0.77h-3.394v-4.18a0.773,0.773,0,0,0-.783-0.77H756.2a0.773,0.773,0,0,0-.783.77v4.18h-7.622v-4.18a0.773,0.773,0,0,0-.783-0.77h-3.341a0.773,0.773,0,0,0-.783.77v4.18h-7.622v-4.18a0.773,0.773,0,0,0-.783-0.77h-3.341a0.773,0.773,0,0,0-.783.77v4.18h-3.394a0.774,0.774,0,0,0-.783.77v29.7a0.774,0.774,0,0,0,.783.77h21.1a13.909,13.909,0,0,0,4.481,8.2,14.19,14.19,0,0,0,23.645-10.36A14.025,14.025,0,0,0,764.5,1671.74Zm-7.518-14.55v-4.18h1.775v8.36H756.98v-4.18Zm-12.529,0v-4.18h1.775v8.36h-1.775v-4.18Zm-12.529,0v-4.18H733.7v8.36h-1.775v-4.18Zm16.758,19.03H742a0.774,0.774,0,0,0-.783.77v6.6a0.774,0.774,0,0,0,.783.77h5.948c-0.031.38-.048,0.76-0.048,1.14,0,0.2,0,.41.014,0.62H727.745v-28.16h2.611v4.18a0.773,0.773,0,0,0,.783.77h3.341a0.774,0.774,0,0,0,.783-0.77v-4.18h7.622v4.18a0.773,0.773,0,0,0,.783.77h3.341a0.773,0.773,0,0,0,.783-0.77v-4.18h7.622v4.18a0.774,0.774,0,0,0,.783.77h3.341a0.773,0.773,0,0,0,.783-0.77v-4.18h2.611v13.59c-0.3-.02-0.593-0.02-0.888-0.02a13.674,13.674,0,0,0-2.558.23v-4.67a0.773,0.773,0,0,0-.783-0.77h-6.682a0.773,0.773,0,0,0-.783.77v6.6a0.773,0.773,0,0,0,.783.77h1.347a14.118,14.118,0,0,0-3.3,3.6c-0.219.34-.419,0.69-0.606,1.05v-2.12A0.774,0.774,0,0,0,748.68,1676.22Zm-0.783,1.54v5.06H742.78v-5.06H747.9Zm10.023-9.9v4.27a13.623,13.623,0,0,0-2.03.79H752.8v-5.06h5.116Zm4.124,30.07a12.491,12.491,0,0,1-12.512-11.12h0a12.64,12.64,0,0,1-.069-1.31,12.35,12.35,0,0,1,6.956-11.12h0a12.979,12.979,0,0,1,2.478-.92h0a12.765,12.765,0,0,1,3.146-.39,13.768,13.768,0,0,1,1.573.1h0A12.421,12.421,0,0,1,762.044,1697.93Zm10.871-16.25a0.792,0.792,0,0,0-1-.47,0.773,0.773,0,0,0-.475.99,9.7,9.7,0,0,1,.576,3.3,0.783,0.783,0,0,0,1.566,0A11.2,11.2,0,0,0,772.915,1681.68Zm-1.382-2.66a11.594,11.594,0,0,0-6.353-4.49,0.786,0.786,0,0,0-.967.54,0.77,0.77,0,0,0,.541.95,10.005,10.005,0,0,1,5.492,3.89,0.8,0.8,0,0,0,.644.33,0.815,0.815,0,0,0,.446-0.14A0.771,0.771,0,0,0,771.533,1679.02Zm-9.489-2.28a8.761,8.761,0,1,0,8.873,8.76A8.828,8.828,0,0,0,762.044,1676.74Zm0,15.98a7.221,7.221,0,1,1,7.307-7.22A7.273,7.273,0,0,1,762.044,1692.72Zm4.594-7.43h-3.811v-3.76a0.783,0.783,0,0,0-1.566,0v4.53a0.782,0.782,0,0,0,.783.78h4.594A0.775,0.775,0,1,0,766.638,1685.29Z" transform="translate(-726.188 -1651.47)"/>
</svg>
