<svg xmlns="http://www.w3.org/2000/svg" width="45" height="45" viewBox="0 0 45 45">
  <defs>
    <style>
      .cls-1 {
        fill: #2d303a;
        fill-rule: evenodd;
      }
    </style>
  </defs>
  <path id="volkswagen.svg" class="cls-1" d="M175.5,1221a22.5,22.5,0,1,0,22.5,22.5,22.5,22.5,0,0,0-22.5-22.5h0Zm0,42.98a20.48,20.48,0,1,1,20.483-20.48,20.482,20.482,0,0,1-20.483,20.48h0Zm-4.485-35.78a16.014,16.014,0,0,1,8.964,0h0l-4.479,9.92-4.485-9.92h0Zm13.042,1.85a15.919,15.919,0,0,1,4.32,4.05h0l-7.352,16.27-2.837-6.31h-5.376l-2.837,6.31-7.341-16.29h0a16,16,0,0,1,4.308-4.03h0l5.87,13.02h5.394l5.851-13.02h0Zm-23.961,9.32a15.973,15.973,0,0,0,8.288,18.4h0l-8.288-18.4h0Zm10.994,19.45a15.665,15.665,0,0,0,4.41.62,16,16,0,0,0,4.405-.61h0l-4.405-9.79-4.41,9.78h0Zm11.526-1.05a15.971,15.971,0,0,0,8.3-18.36h0l-8.3,18.36h0Z" transform="translate(-153 -1221)"/>
</svg>
