<svg id="garantee.svg" xmlns="http://www.w3.org/2000/svg" width="84" height="84" viewBox="0 0 84 84">
  <defs>
    <style>
      .cls-1 {
        fill: #fff;
        fill-rule: evenodd;
      }
    </style>
  </defs>
  <path id="guarantee" class="cls-1" d="M670,155.188c-13.961,0-25.308,11.12-25.308,24.8,0,13.665,11.347,24.8,25.308,24.8s25.307-11.137,25.307-24.8C695.307,166.308,683.959,155.188,670,155.188Zm0,45.394a20.6,20.6,0,1,1,21.01-20.591A20.829,20.829,0,0,1,670,200.582Zm39.091-19.251a2.742,2.742,0,0,1-.017-3.266l1.491-2.079a6.911,6.911,0,0,0,1.122-5.656,7.021,7.021,0,0,0-3.578-4.571l-2.28-1.2a2.777,2.777,0,0,1-1.473-2.922l0.439-2.509a6.966,6.966,0,0,0-1.491-5.569,7.225,7.225,0,0,0-5.244-2.6l-2.6-.1a2.822,2.822,0,0,1-2.613-2.011l-0.754-2.423a7.163,7.163,0,0,0-6.875-5.054,7.245,7.245,0,0,0-2.823.568l-2.385,1a2.923,2.923,0,0,1-3.245-.7l-1.736-1.89a7.239,7.239,0,0,0-10.716.069l-1.683,1.925a2.938,2.938,0,0,1-3.245.756l-2.4-.962a7.4,7.4,0,0,0-2.718-.534,7.132,7.132,0,0,0-6.893,5.157l-0.683,2.458a2.836,2.836,0,0,1-2.6,2.045l-2.578.155a7.159,7.159,0,0,0-5.209,2.665,6.917,6.917,0,0,0-1.4,5.585l0.474,2.493a2.775,2.775,0,0,1-1.421,2.956l-2.262,1.238a7.048,7.048,0,0,0-3.508,4.623,6.9,6.9,0,0,0,1.21,5.638l1.526,2.046a2.741,2.741,0,0,1,.018,3.265L629.452,184a6.908,6.908,0,0,0-1.122,5.656,7.024,7.024,0,0,0,3.577,4.572l2.28,1.2a2.778,2.778,0,0,1,1.473,2.923l-0.438,2.509a6.963,6.963,0,0,0,1.491,5.569,7.216,7.216,0,0,0,5.243,2.6l2.6,0.1a2.822,2.822,0,0,1,2.613,2.011l0.719,2.441a7.165,7.165,0,0,0,6.875,5.053,7.267,7.267,0,0,0,2.824-.567l2.385-1a2.925,2.925,0,0,1,3.244.7l1.736,1.891a7.239,7.239,0,0,0,10.716-.069l1.7-1.926a2.938,2.938,0,0,1,3.245-.756l2.4,0.963a7.414,7.414,0,0,0,2.718.533,7.13,7.13,0,0,0,6.892-5.157l0.684-2.458a2.836,2.836,0,0,1,2.6-2.045l2.6-.155a7.184,7.184,0,0,0,5.208-2.664,6.9,6.9,0,0,0,1.4-5.586l-0.473-2.493a2.775,2.775,0,0,1,1.42-2.956l2.263-1.237a7.043,7.043,0,0,0,3.507-4.624,6.9,6.9,0,0,0-1.21-5.638Zm-1.455,6.79a2.785,2.785,0,0,1-1.4,1.839L703.97,191.2a6.952,6.952,0,0,0-3.56,7.391l0.474,2.492a2.7,2.7,0,0,1-.562,2.236,2.849,2.849,0,0,1-2.086,1.065l-2.579.154a7.1,7.1,0,0,0-6.489,5.14l-0.684,2.44a2.843,2.843,0,0,1-2.753,2.063,2.963,2.963,0,0,1-1.087-.206l-2.4-.963a7.444,7.444,0,0,0-2.719-.533,7.238,7.238,0,0,0-5.4,2.408l-1.7,1.907a2.9,2.9,0,0,1-4.28.035l-1.736-1.892a7.27,7.27,0,0,0-8.155-1.77l-2.385,1a2.881,2.881,0,0,1-3.858-1.788l-0.719-2.44a7.141,7.141,0,0,0-6.56-5.053l-2.6-.1a2.787,2.787,0,0,1-2.087-1.032,2.7,2.7,0,0,1-.6-2.217l0.438-2.51a6.953,6.953,0,0,0-3.683-7.339l-2.28-1.2a2.763,2.763,0,0,1-1.438-1.822,2.65,2.65,0,0,1,.456-2.251l1.491-2.081a6.88,6.88,0,0,0-.07-8.181l-1.526-2.046a2.659,2.659,0,0,1-.474-2.251,2.784,2.784,0,0,1,1.4-1.84l2.263-1.238a6.95,6.95,0,0,0,3.56-7.391l-0.456-2.474a2.7,2.7,0,0,1,.561-2.235,2.852,2.852,0,0,1,2.087-1.066l2.578-.155a7.119,7.119,0,0,0,6.489-5.139l0.684-2.458a2.844,2.844,0,0,1,2.754-2.062,2.986,2.986,0,0,1,1.087.205l2.4,0.964a7.442,7.442,0,0,0,2.718.532,7.242,7.242,0,0,0,5.4-2.406l1.7-1.908a2.894,2.894,0,0,1,4.279-.035l1.736,1.891a7.269,7.269,0,0,0,8.155,1.771l2.385-1a2.88,2.88,0,0,1,3.859,1.787l0.719,2.441a7.141,7.141,0,0,0,6.559,5.054l2.6,0.1a2.85,2.85,0,0,1,2.1,1.031,2.7,2.7,0,0,1,.6,2.217l-0.439,2.51a6.951,6.951,0,0,0,3.683,7.339l2.28,1.2a2.756,2.756,0,0,1,1.438,1.821,2.708,2.708,0,0,1-.438,2.252l-1.491,2.08a6.882,6.882,0,0,0,.07,8.182l1.526,2.044A2.98,2.98,0,0,1,707.636,188.121Zm-31.41-14.954-9.4,9.161-3.052-3.008a2.168,2.168,0,0,0-3.033,0,2.082,2.082,0,0,0-.018,2.974l4.577,4.5a2.17,2.17,0,0,0,1.526.619h0a2.157,2.157,0,0,0,1.508-.619l10.926-10.639a2.082,2.082,0,0,0,.018-2.974A2.206,2.206,0,0,0,676.226,173.167Z" transform="translate(-628 -138)"/>
</svg>
