<svg id="forBusiness.svg" xmlns="http://www.w3.org/2000/svg" width="96.031" height="61.031" viewBox="0 0 96.031 61.031">
  <defs>
    <style>
      .cls-1 {
        fill: #fff;
        fill-rule: evenodd;
      }
    </style>
  </defs>
  <path id="business" class="cls-1" d="M714.181,152.143a2.067,2.067,0,0,0-1.831-.228l-16.313,5.651a7.813,7.813,0,0,0-4.533,3.974,7.4,7.4,0,0,0-.391,1.074,76.234,76.234,0,0,1-13.18-4.884c-7.818-3.838-13.79-1.942-18.913,1.781-2.6.049-6.173,0.341-9.69,0.637-2.243.188-4.363,0.361-6.082,0.46a7.321,7.321,0,0,0-.73-2.881,7.813,7.813,0,0,0-4.533-3.974L621.672,148.1a2.076,2.076,0,0,0-1.831.229,1.88,1.88,0,0,0-.854,1.562v38.13a1.953,1.953,0,0,0,2,1.907h5.844a8.2,8.2,0,0,0,6.294-2.921c0.8,0.577,1.739,1.253,2.728,1.96,2.336,1.674,4.892,3.5,6.013,4.4,7.451,5.943,16.409,12.361,18.193,13.478A15.2,15.2,0,0,0,667.011,209a7.616,7.616,0,0,0,4.721-1.273,6.723,6.723,0,0,0,5.014-.105,7.341,7.341,0,0,0,3.711-3.538,8.138,8.138,0,0,0,4.987-.7,6.664,6.664,0,0,0,3.251-3.119,6.5,6.5,0,0,0,4.372-1.33,6.056,6.056,0,0,0,2.622-5.655l5.075-2.676a8.145,8.145,0,0,0,6.425,3.139h5.845a1.955,1.955,0,0,0,2-1.907v-38.13A1.883,1.883,0,0,0,714.181,152.143Zm-83.6,31.5a4.019,4.019,0,0,1-3.748,2.474h-3.844v-33.5l13.628,4.723a3.905,3.905,0,0,1,2.267,1.988,3.618,3.618,0,0,1,.114,2.933Zm60.058,12.264c-0.678.5-1.628,0.77-2.05,0.369-0.021-.021-0.055-0.02-0.077-0.039-0.038-.034-0.057-0.079-0.1-0.111-1.43-1.077-7.84-7.324-11.8-11.26a2.065,2.065,0,0,0-2.827-.058,1.84,1.84,0,0,0-.061,2.694c0.93,0.924,8.393,8.331,11.38,10.921a2.685,2.685,0,0,1-1.451,1.551,3.215,3.215,0,0,1-3.119.067c-0.014-.013-0.037-0.012-0.052-0.025s-0.035-.05-0.061-0.069c-2.4-1.827-8.42-7.922-9.783-9.333a2.071,2.071,0,0,0-2.827-.114,1.843,1.843,0,0,0-.119,2.693c0.065,0.069,5.966,6.133,9.279,8.949a3.411,3.411,0,0,1-1.84,1.989,2.723,2.723,0,0,1-2.734-.389c-2.873-2.321-8.64-8.171-9.774-9.327a2.069,2.069,0,0,0-2.828-.091,1.844,1.844,0,0,0-.1,2.694c1.345,1.372,5.32,5.385,8.341,8.1a8.877,8.877,0,0,1-1.028.063,11.371,11.371,0,0,1-4.753-1.528c-1.4-.878-10.212-7.142-17.819-13.211-1.151-.92-3.777-2.8-6.181-4.523-1.288-.921-2.475-1.77-3.35-2.412L642.4,164.47c1.945-.08,4.538-0.294,7.282-0.525,1.552-.131,3.105-0.258,4.59-0.368-2.282,2.232-5.675,6.23-5.227,9.977a5.486,5.486,0,0,0,2.835,4.109c3.269,1.949,9.321.315,12.237-3.1a14.415,14.415,0,0,0,4.541-1.372c2.345,2.1,5.489,4.569,8.791,7.162,5.75,4.513,12.266,9.631,13.99,12.5A2.243,2.243,0,0,1,690.638,195.906Zm3.433-6.131c-2.666-3.4-8.446-7.946-14.077-12.367-3.754-2.947-7.3-5.732-9.568-7.892a2.085,2.085,0,0,0-2.358-.334,11.957,11.957,0,0,1-5.258,1.691,2.021,2.021,0,0,0-1.494.881c-1.569,2.372-5.93,3.5-7.314,2.677a1.693,1.693,0,0,1-.981-1.309c-0.193-1.622,1.53-4.43,4.389-7.155,7.08-6.745,12.141-8.065,18.689-4.848a80.223,80.223,0,0,0,14.939,5.437,7.469,7.469,0,0,0,.239.853l7.769,19.743Zm16.962,0.154h-3.844a4.019,4.019,0,0,1-3.748-2.474l-8.416-21.384a3.624,3.624,0,0,1,.113-2.934,3.911,3.911,0,0,1,2.267-1.988l13.628-4.723v33.5h0Z" transform="translate(-619 -147.969)"/>
</svg>
