<svg xmlns="http://www.w3.org/2000/svg" viewBox="0 0 291.319 291.319"><path d="M145.66 0c80.44 0 145.66 65.22 145.66 145.66S226.1 291.32 145.66 291.32 0 226.1 0 145.66 65.21 0 145.66 0z" fill="#FF0000"/><path d="M195.93 63.708H95.38c-17.47 0-31.672 14.21-31.672 31.672v100.56c0 17.47 14.21 31.672 31.672 31.672h100.56c17.47 0 31.672-14.21 31.672-31.672V95.38c0-17.46-14.212-31.672-31.682-31.672zm9.978 18.326l3.587-.01v27.203l-27.402.09-.09-27.2 23.905-.083zM145.66 118.24c22.732 0 27.42 21.338 27.42 27.428 0 15.103-12.308 27.41-27.42 27.41-15.12 0-27.42-12.307-27.42-27.41-.01-6.09 4.688-27.43 27.42-27.43zm63.99 75.715c0 8.658-7.037 15.704-15.713 15.704H97.073c-8.667 0-15.713-7.038-15.713-15.705v-66.54h22.76c-2.113 5.2-3.306 12.3-3.306 18.254 0 24.707 20.1 44.817 44.818 44.817s44.808-20.11 44.808-44.818c0-5.955-1.193-13.056-3.296-18.254h22.486v66.54h.02z" fill="#FFF"/></svg>