<svg xmlns="http://www.w3.org/2000/svg" width="36.5" height="13.5" viewBox="0 0 36.5 13.5">
  <defs>
    <style>
      .cls-1 {
        fill: #2d303a;
        fill-rule: evenodd;
        opacity: 0.3;
      }
    </style>
  </defs>
  <path id="arrowSaleOne.svg" class="cls-1" d="M825.177,891.225l-0.025,0h31.041l-3.471-3.427a0.888,0.888,0,0,1,0-1.262l0.54-.532a0.913,0.913,0,0,1,1.275,0l5.95,5.86a0.887,0.887,0,0,1,0,1.261l-5.95,5.861a0.912,0.912,0,0,1-1.275,0l-0.54-.532a0.873,0.873,0,0,1-.263-0.628,0.846,0.846,0,0,1,.263-0.616l3.51-3.446H825.165a0.928,0.928,0,0,1-.915-0.912V892.1A0.91,0.91,0,0,1,825.177,891.225Z" transform="translate(-824.25 -885.75)"/>
</svg>
