<svg id="sale-one-icon.svg" xmlns="http://www.w3.org/2000/svg" width="85.875" height="85.813" viewBox="0 0 85.875 85.813">
  <defs>
    <style>
      .cls-1 {
        fill: #fff;
        fill-rule: evenodd;
      }
    </style>
  </defs>
  <path id="Фигура_1" data-name="Фигура 1" class="cls-1" d="M640.572,135.28a5.7,5.7,0,1,0,5.7,5.7A5.706,5.706,0,0,0,640.572,135.28Zm0,8.046a2.347,2.347,0,1,1,2.348-2.347A2.35,2.35,0,0,1,640.572,143.326Z" transform="translate(-627 -127.406)"/>
  <path id="Фигура_5" data-name="Фигура 5" class="cls-1" d="M642.342,172.492l-0.048-.12a1.677,1.677,0,0,0-3.109,1.257l0.048,0.12a1.678,1.678,0,0,0,1.556,1.048A1.677,1.677,0,0,0,642.342,172.492ZM672.6,142.505l-22.769-11.45A13.572,13.572,0,0,0,628.4,146.992l0,0.007,8.189,20.222a1.677,1.677,0,0,0,3.109-1.258l-5.2-12.845a13.572,13.572,0,0,0,18.937-16.5l17.657,8.88A1.676,1.676,0,1,0,672.6,142.505Zm-32.026,8.7a10.226,10.226,0,1,1,10.23-10.226A10.239,10.239,0,0,1,640.572,151.205Zm68.36,9.577c-0.027-.016-0.053-0.032-0.081-0.046l-22.519-11.325a1.677,1.677,0,1,0-1.508,3l16.952,8.525a7.372,7.372,0,0,0,3.284,13.733l-13.393,18.265c0.033-.493.052-0.99,0.052-1.492a21.8,21.8,0,0,0-43.261-3.843l-3.63-8.965a1.677,1.677,0,0,0-3.108,1.259l8.062,19.908c0.009,0.022.022,0.042,0.032,0.064a21.791,21.791,0,0,0,37.083,5.23L686.9,205.1l0.106-.145q0.519-.654.988-1.347l23.189-31.622a7.2,7.2,0,0,0,.476-0.649,1.48,1.48,0,0,0,.1-0.162A7.362,7.362,0,0,0,708.932,160.782Zm-23.675,40.887-0.93,1.268A18.382,18.382,0,1,1,685.257,201.669Zm23.656-32.258-0.373.509A4.01,4.01,0,1,1,708.913,169.411Zm-29.6-23.53-0.022-.011a1.676,1.676,0,1,0-1.5,3l0.021,0.011A1.676,1.676,0,0,0,679.311,145.881Zm-9.392,40.248a5.309,5.309,0,1,0,5.31,5.308A5.315,5.315,0,0,0,669.919,186.129Zm0,7.264a1.956,1.956,0,1,1,1.956-1.956A1.958,1.958,0,0,1,669.919,193.393Zm13.485-5.524-1.536-.383-0.67-1.615,0.827-1.375a1.678,1.678,0,0,0-.248-2.046l-2.8-2.816a1.677,1.677,0,0,0-2.053-.255l-1.386.833-1.616-.67-0.394-1.579a1.676,1.676,0,0,0-1.627-1.271h-3.964a1.676,1.676,0,0,0-1.627,1.271l-0.394,1.579-1.616.67-1.386-.833a1.677,1.677,0,0,0-2.053.255l-2.8,2.816a1.676,1.676,0,0,0-.248,2.046l0.827,1.375-0.67,1.615-1.536.383a1.675,1.675,0,0,0-1.272,1.633l0.015,3.988a1.675,1.675,0,0,0,1.271,1.62l1.522,0.379,0.67,1.616-0.8,1.322a1.675,1.675,0,0,0,.256,2.052l2.842,2.825a1.679,1.679,0,0,0,2.046.248l1.312-.789,1.616,0.67,0.369,1.479a1.676,1.676,0,0,0,1.627,1.271h4.014a1.676,1.676,0,0,0,1.627-1.271l0.369-1.479,1.616-.67,1.312,0.789a1.678,1.678,0,0,0,2.046-.248l2.843-2.825a1.675,1.675,0,0,0,.255-2.052l-0.8-1.322,0.67-1.616,1.521-.379a1.676,1.676,0,0,0,1.272-1.62l0.015-3.988A1.677,1.677,0,0,0,683.4,187.869Zm-2.092,4.3-1.075.268a1.677,1.677,0,0,0-1.144.985l-1.317,3.177a1.676,1.676,0,0,0,.112,1.506l0.553,0.92-0.984.978-0.917-.551a1.679,1.679,0,0,0-1.506-.112l-3.178,1.316a1.677,1.677,0,0,0-.985,1.144l-0.256,1.028h-1.393l-0.256-1.028a1.678,1.678,0,0,0-.986-1.144l-3.178-1.316a1.679,1.679,0,0,0-1.506.112l-0.917.551-0.984-.978,0.554-.92a1.679,1.679,0,0,0,.112-1.506l-1.317-3.177a1.679,1.679,0,0,0-1.144-.985l-1.075-.268,0-1.368,1.08-.269a1.675,1.675,0,0,0,1.144-.984l1.317-3.177a1.679,1.679,0,0,0-.112-1.506l-0.59-.98,0.953-.959,0.984,0.592a1.676,1.676,0,0,0,1.506.112l3.178-1.317a1.674,1.674,0,0,0,.986-1.144l0.281-1.127h1.343l0.281,1.127a1.673,1.673,0,0,0,.985,1.144l3.178,1.317a1.676,1.676,0,0,0,1.506-.112l0.984-.592,0.953,0.959-0.589.98a1.673,1.673,0,0,0-.112,1.506l1.317,3.177a1.676,1.676,0,0,0,1.144.984l1.08,0.269Z" transform="translate(-627 -127.406)"/>
</svg>
