<svg id="blog.svg" xmlns="http://www.w3.org/2000/svg" width="60" height="60" viewBox="0 0 60 60">
  <defs>
    <style>
      .cls-1 {
        fill: #2d303a;
        fill-rule: evenodd;
      }
    </style>
  </defs>
  <path id="Фигура_746" data-name="Фигура 746" class="cls-1" d="M986.811,2681.16h32.909v1.93H986.811v-1.93Zm0,8.71h30.969v1.94H986.811v-1.94Zm0,8.71H1011v1.94H986.811v-1.94Zm7.736,8.71h1.937v1.94h-1.937v-1.94Zm-3.874,0h1.937v1.94h-1.937v-1.94Zm-3.862,0h1.937v1.94h-1.937v-1.94Zm0-46.45v15.49h13.549v-15.49H986.811Zm11.61,13.55h-9.673v-11.61h9.673v11.61Zm41.729,8.42-2.74-2.74a2.915,2.915,0,0,0-4.11,0l-7.8,7.8v-17.76L1011.4,2656H981v60h44.51v-14.44l14.64-14.64A2.915,2.915,0,0,0,1040.15,2682.81Zm-28.18-23.5,10.24,10.24h-10.24v-10.24Zm11.61,54.75H982.937v-56.12h27.093v13.54h13.55v18.32l-13.75,13.75-1.71,8.55,8.55-1.71,6.91-6.91v10.58Zm-12.26-8.08,2.92,2.92-3.65.73Zm4.88,2.15-4.11-4.11,17.79-17.78,4.12,4.11Zm19.17-19.15-4.11-4.11,1.37-1.37,4.11,4.11Zm3.41-3.43-0.69.69-4.11-4.11,0.69-.69a0.966,0.966,0,0,1,1.37,0l2.74,2.74A0.966,0.966,0,0,1,1038.78,2685.55Zm-23.27,17.79,13.69-13.68,1.37,1.37-13.69,13.68Z" transform="translate(-981 -2656)"/>
</svg>
