<svg id="shop.svg" xmlns="http://www.w3.org/2000/svg" width="60" height="60" viewBox="0 0 60 60">
  <defs>
    <style>
      .cls-1 {
        fill: #2d303a;
    
      }
    </style>
  </defs>
  <path id="Фигура_749" data-name="Фигура 749" class="cls-1" d="M560.484,2709.19h9.677v1.94h-9.677v-1.94Zm40.645-30.96H587.981l-2.336-2.34v-16.05a4.844,4.844,0,0,0-4.839-4.84H549.839a4.844,4.844,0,0,0-4.839,4.84v50.32a4.844,4.844,0,0,0,4.839,4.84h30.967a4.844,4.844,0,0,0,4.839-4.84v-10.64h2.033a9.2,9.2,0,0,0,12.948-4.16l1.357-9.49A3.867,3.867,0,0,0,601.129,2678.23Zm-13.1,2.78a1.791,1.791,0,0,1,.517,1.25,1.768,1.768,0,0,1-3.02,1.25l-13.881-13.88a1.768,1.768,0,1,1,2.5-2.5Zm-4.722,3.02H572.1a1.935,1.935,0,1,1,0-3.87h7.341Zm-36.374-24.19a2.9,2.9,0,0,1,2.9-2.9h30.967a2.9,2.9,0,0,1,2.9,2.9v0.97H546.935v-0.97Zm36.775,50.32a2.9,2.9,0,0,1-2.9,2.9H549.839a2.9,2.9,0,0,1-2.9-2.9v-2.9H583.71v2.9Zm0-4.84H546.935v-42.58H583.71v11.21l-8.192-8.19a3.705,3.705,0,0,0-5.24,5.24l7.225,7.23H572.1a3.867,3.867,0,0,0-.855,7.64l1.357,9.49a39.688,39.688,0,0,0,8.207,8.03,4.761,4.761,0,0,0,2.9-1v2.93Zm-2.9-3.87a2.905,2.905,0,1,1,2.9-2.9A2.9,2.9,0,0,1,580.806,2701.45Zm11.613,0a2.905,2.905,0,1,1,2.9-2.9A2.9,2.9,0,0,1,592.419,2701.45Zm6.291-6.36a2.891,2.891,0,0,1-1.64,2.2,4.826,4.826,0,0,0-9.392.29h-2.131a4.826,4.826,0,0,0-9.392-.29,2.89,2.89,0,0,1-1.639-2.2l-1.3-9.12h2.755v5.8H577.9v-5.8h1.936v5.8h1.935v-5.8h1.936v5.8h1.935v-5.8h1.936v5.8h1.935v-5.8h1.936v1.93h1.935v-1.93h1.936v5.8h1.935v-5.8h2.755Zm2.419-11.06H590.013a3.641,3.641,0,0,0,.471-1.77,3.693,3.693,0,0,0-.659-2.1h11.3A1.935,1.935,0,1,1,601.129,2684.03Zm-9.677,5.81h1.935v1.93h-1.935v-1.93Zm-42.581-8.71h1.935v1.93h-1.935v-1.93Zm3.871,0H566.29v1.93H552.742v-1.93Zm-1.936,5.81H566.29v1.93H550.806v-1.93Zm1.936,5.8h1.935v1.94h-1.935v-1.94Zm3.871,0h9.677v1.94h-9.677v-1.94Zm-1.936,5.81H566.29v1.93H554.677v-1.93Zm36.775-.97h1.935v1.94h-1.935v-1.94Zm-11.613,0h1.935v1.94h-1.935v-1.94Z" transform="translate(-545 -2655)"/>
</svg>
